<svg width="20" height="20" viewBox="0 0 20 20" fill="none" xmlns="http://www.w3.org/2000/svg">
<path d="M14.9997 1.66699H6.66634C5.78229 1.66699 4.93444 2.01818 4.30932 2.6433C3.6842 3.26842 3.33301 4.11627 3.33301 5.00033V15.0003C3.33301 15.8844 3.6842 16.7322 4.30932 17.3573C4.93444 17.9825 5.78229 18.3337 6.66634 18.3337H14.9997C15.4417 18.3337 15.8656 18.1581 16.1782 17.8455C16.4907 17.5329 16.6663 17.109 16.6663 16.667V3.33366C16.6663 2.89163 16.4907 2.46771 16.1782 2.15515C15.8656 1.84259 15.4417 1.66699 14.9997 1.66699ZM4.99967 5.00033C4.99967 4.5583 5.17527 4.13437 5.48783 3.82181C5.80039 3.50925 6.22431 3.33366 6.66634 3.33366H14.9997V11.667H6.66634C6.07887 11.6695 5.503 11.8307 4.99967 12.1337V5.00033ZM6.66634 16.667C6.22431 16.667 5.80039 16.4914 5.48783 16.1788C5.17527 15.8663 4.99967 15.4424 4.99967 15.0003C4.99967 14.5583 5.17527 14.1344 5.48783 13.8218C5.80039 13.5093 6.22431 13.3337 6.66634 13.3337H14.9997V16.667H6.66634ZM8.33301 6.66699H11.6663C11.8874 6.66699 12.0993 6.57919 12.2556 6.42291C12.4119 6.26663 12.4997 6.05467 12.4997 5.83366C12.4997 5.61265 12.4119 5.40068 12.2556 5.2444C12.0993 5.08812 11.8874 5.00033 11.6663 5.00033H8.33301C8.11199 5.00033 7.90003 5.08812 7.74375 5.2444C7.58747 5.40068 7.49967 5.61265 7.49967 5.83366C7.49967 6.05467 7.58747 6.26663 7.74375 6.42291C7.90003 6.57919 8.11199 6.66699 8.33301 6.66699V6.66699Z" fill="#212121"/>
</svg>
