<svg width="20" height="20" viewBox="0 0 20 20" fill="none" xmlns="http://www.w3.org/2000/svg">
<path d="M11.667 6.66699H12.5003C12.7213 6.66699 12.9333 6.57919 13.0896 6.42291C13.2459 6.26663 13.3337 6.05467 13.3337 5.83366C13.3337 5.61265 13.2459 5.40068 13.0896 5.2444C12.9333 5.08812 12.7213 5.00033 12.5003 5.00033H11.667C11.446 5.00033 11.234 5.08812 11.0777 5.2444C10.9215 5.40068 10.8337 5.61265 10.8337 5.83366C10.8337 6.05467 10.9215 6.26663 11.0777 6.42291C11.234 6.57919 11.446 6.66699 11.667 6.66699V6.66699ZM11.667 10.0003H12.5003C12.7213 10.0003 12.9333 9.91253 13.0896 9.75625C13.2459 9.59997 13.3337 9.38801 13.3337 9.16699C13.3337 8.94598 13.2459 8.73402 13.0896 8.57774C12.9333 8.42146 12.7213 8.33366 12.5003 8.33366H11.667C11.446 8.33366 11.234 8.42146 11.0777 8.57774C10.9215 8.73402 10.8337 8.94598 10.8337 9.16699C10.8337 9.38801 10.9215 9.59997 11.0777 9.75625C11.234 9.91253 11.446 10.0003 11.667 10.0003V10.0003ZM7.50033 6.66699H8.33366C8.55467 6.66699 8.76663 6.57919 8.92291 6.42291C9.07919 6.26663 9.16699 6.05467 9.16699 5.83366C9.16699 5.61265 9.07919 5.40068 8.92291 5.2444C8.76663 5.08812 8.55467 5.00033 8.33366 5.00033H7.50033C7.27931 5.00033 7.06735 5.08812 6.91107 5.2444C6.75479 5.40068 6.66699 5.61265 6.66699 5.83366C6.66699 6.05467 6.75479 6.26663 6.91107 6.42291C7.06735 6.57919 7.27931 6.66699 7.50033 6.66699V6.66699ZM7.50033 10.0003H8.33366C8.55467 10.0003 8.76663 9.91253 8.92291 9.75625C9.07919 9.59997 9.16699 9.38801 9.16699 9.16699C9.16699 8.94598 9.07919 8.73402 8.92291 8.57774C8.76663 8.42146 8.55467 8.33366 8.33366 8.33366H7.50033C7.27931 8.33366 7.06735 8.42146 6.91107 8.57774C6.75479 8.73402 6.66699 8.94598 6.66699 9.16699C6.66699 9.38801 6.75479 9.59997 6.91107 9.75625C7.06735 9.91253 7.27931 10.0003 7.50033 10.0003V10.0003ZM17.5003 16.667H16.667V2.50033C16.667 2.27931 16.5792 2.06735 16.4229 1.91107C16.2666 1.75479 16.0547 1.66699 15.8337 1.66699H4.16699C3.94598 1.66699 3.73402 1.75479 3.57774 1.91107C3.42146 2.06735 3.33366 2.27931 3.33366 2.50033V16.667H2.50033C2.27931 16.667 2.06735 16.7548 1.91107 16.9111C1.75479 17.0673 1.66699 17.2793 1.66699 17.5003C1.66699 17.7213 1.75479 17.9333 1.91107 18.0896C2.06735 18.2459 2.27931 18.3337 2.50033 18.3337H17.5003C17.7213 18.3337 17.9333 18.2459 18.0896 18.0896C18.2459 17.9333 18.3337 17.7213 18.3337 17.5003C18.3337 17.2793 18.2459 17.0673 18.0896 16.9111C17.9333 16.7548 17.7213 16.667 17.5003 16.667ZM10.8337 16.667H9.16699V13.3337H10.8337V16.667ZM15.0003 16.667H12.5003V12.5003C12.5003 12.2793 12.4125 12.0674 12.2562 11.9111C12.1 11.7548 11.888 11.667 11.667 11.667H8.33366C8.11264 11.667 7.90068 11.7548 7.7444 11.9111C7.58812 12.0674 7.50033 12.2793 7.50033 12.5003V16.667H5.00033V3.33366H15.0003V16.667Z" fill="#212121"/>
</svg>
