<svg width="20" height="20" viewBox="0 0 20 20" fill="none" xmlns="http://www.w3.org/2000/svg">
<path d="M15.417 1.66699H5.41699C4.75395 1.66699 4.11807 1.93038 3.64923 2.39923C3.18038 2.86807 2.91699 3.50395 2.91699 4.16699V14.167C2.91844 14.6828 3.07939 15.1855 3.37777 15.6062C3.67616 16.0269 4.09737 16.3451 4.58366 16.517V17.5003C4.58366 17.7213 4.67146 17.9333 4.82774 18.0896C4.98402 18.2459 5.19598 18.3337 5.41699 18.3337C5.63801 18.3337 5.84997 18.2459 6.00625 18.0896C6.16253 17.9333 6.25033 17.7213 6.25033 17.5003V16.667H14.5837V17.5003C14.5837 17.7213 14.6715 17.9333 14.8277 18.0896C14.984 18.2459 15.196 18.3337 15.417 18.3337C15.638 18.3337 15.85 18.2459 16.0062 18.0896C16.1625 17.9333 16.2503 17.7213 16.2503 17.5003V16.517C16.7366 16.3451 17.1578 16.0269 17.4562 15.6062C17.7546 15.1855 17.9155 14.6828 17.917 14.167V4.16699C17.917 3.50395 17.6536 2.86807 17.1848 2.39923C16.7159 1.93038 16.08 1.66699 15.417 1.66699ZM4.58366 6.66699H9.58366V10.0003H4.58366V6.66699ZM16.2503 14.167C16.2503 14.388 16.1625 14.6 16.0062 14.7562C15.85 14.9125 15.638 15.0003 15.417 15.0003H5.41699C5.19598 15.0003 4.98402 14.9125 4.82774 14.7562C4.67146 14.6 4.58366 14.388 4.58366 14.167V11.667H16.2503V14.167ZM16.2503 10.0003H11.2503V6.66699H16.2503V10.0003ZM16.2503 5.00033H4.58366V4.16699C4.58366 3.94598 4.67146 3.73402 4.82774 3.57774C4.98402 3.42146 5.19598 3.33366 5.41699 3.33366H15.417C15.638 3.33366 15.85 3.42146 16.0062 3.57774C16.1625 3.73402 16.2503 3.94598 16.2503 4.16699V5.00033ZM13.4337 14.1003C13.5338 14.143 13.6414 14.1657 13.7503 14.167C13.9713 14.167 14.1833 14.0792 14.3396 13.9229C14.4959 13.7666 14.5837 13.5547 14.5837 13.3337C14.5877 13.2782 14.5877 13.2225 14.5837 13.167C14.5745 13.1148 14.5577 13.0642 14.5337 13.017C14.5154 12.9639 14.4902 12.9134 14.4587 12.867C14.4279 12.8233 14.3945 12.7816 14.3587 12.742L14.2337 12.642C14.1872 12.6105 14.1368 12.5852 14.0837 12.567C14.0323 12.5355 13.9759 12.513 13.917 12.5003C13.7818 12.4721 13.6418 12.4778 13.5094 12.5171C13.3771 12.5564 13.2565 12.6279 13.1587 12.7253C13.1228 12.7649 13.0894 12.8067 13.0587 12.8503C13.0271 12.8968 13.0019 12.9472 12.9837 13.0003C12.9596 13.0476 12.9428 13.0981 12.9337 13.1503C12.9296 13.2058 12.9296 13.2615 12.9337 13.317C12.9346 13.5356 13.0214 13.7451 13.1753 13.9003C13.2474 13.9834 13.3352 14.0514 13.4337 14.1003ZM6.76699 14.1003C6.86718 14.143 6.97476 14.1657 7.08366 14.167C7.30467 14.167 7.51663 14.0792 7.67291 13.9229C7.82919 13.7666 7.91699 13.5547 7.91699 13.3337C7.92108 13.2782 7.92108 13.2225 7.91699 13.167C7.90787 13.1148 7.89102 13.0642 7.86699 13.017C7.84875 12.9639 7.82353 12.9134 7.79199 12.867C7.76123 12.8233 7.72783 12.7816 7.69199 12.742L7.56699 12.642L7.41699 12.567L7.25033 12.5003C7.11518 12.4721 6.97513 12.4778 6.84276 12.5171C6.7104 12.5564 6.58986 12.6279 6.49199 12.7253C6.45615 12.7649 6.42276 12.8067 6.39199 12.8503C6.36045 12.8968 6.33523 12.9472 6.31699 13.0003C6.29297 13.0476 6.27611 13.0981 6.26699 13.1503C6.2629 13.2058 6.2629 13.2615 6.26699 13.317C6.26791 13.5356 6.35471 13.7451 6.50866 13.9003C6.58073 13.9834 6.66853 14.0514 6.76699 14.1003V14.1003Z" fill="#212121"/>
</svg>
