<svg width="16" height="16" viewBox="0 0 16 16" fill="none" xmlns="http://www.w3.org/2000/svg">
<path d="M12.6654 2.66732H11.332V2.00065C11.332 1.82384 11.2618 1.65427 11.1368 1.52925C11.0117 1.40422 10.8422 1.33398 10.6654 1.33398C10.4886 1.33398 10.319 1.40422 10.194 1.52925C10.0689 1.65427 9.9987 1.82384 9.9987 2.00065V2.66732H5.9987V2.00065C5.9987 1.82384 5.92846 1.65427 5.80344 1.52925C5.67841 1.40422 5.50884 1.33398 5.33203 1.33398C5.15522 1.33398 4.98565 1.40422 4.86063 1.52925C4.7356 1.65427 4.66536 1.82384 4.66536 2.00065V2.66732H3.33203C2.8016 2.66732 2.29289 2.87803 1.91782 3.2531C1.54274 3.62818 1.33203 4.13688 1.33203 4.66732V12.6673C1.33203 13.1978 1.54274 13.7065 1.91782 14.0815C2.29289 14.4566 2.8016 14.6673 3.33203 14.6673H12.6654C13.1958 14.6673 13.7045 14.4566 14.0796 14.0815C14.4547 13.7065 14.6654 13.1978 14.6654 12.6673V4.66732C14.6654 4.13688 14.4547 3.62818 14.0796 3.2531C13.7045 2.87803 13.1958 2.66732 12.6654 2.66732ZM13.332 12.6673C13.332 12.8441 13.2618 13.0137 13.1368 13.1387C13.0117 13.2637 12.8422 13.334 12.6654 13.334H3.33203C3.15522 13.334 2.98565 13.2637 2.86063 13.1387C2.7356 13.0137 2.66536 12.8441 2.66536 12.6673V8.00065H13.332V12.6673ZM13.332 6.66732H2.66536V4.66732C2.66536 4.49051 2.7356 4.32094 2.86063 4.19591C2.98565 4.07089 3.15522 4.00065 3.33203 4.00065H4.66536V4.66732C4.66536 4.84413 4.7356 5.0137 4.86063 5.13872C4.98565 5.26375 5.15522 5.33398 5.33203 5.33398C5.50884 5.33398 5.67841 5.26375 5.80344 5.13872C5.92846 5.0137 5.9987 4.84413 5.9987 4.66732V4.00065H9.9987V4.66732C9.9987 4.84413 10.0689 5.0137 10.194 5.13872C10.319 5.26375 10.4886 5.33398 10.6654 5.33398C10.8422 5.33398 11.0117 5.26375 11.1368 5.13872C11.2618 5.0137 11.332 4.84413 11.332 4.66732V4.00065H12.6654C12.8422 4.00065 13.0117 4.07089 13.1368 4.19591C13.2618 4.32094 13.332 4.49051 13.332 4.66732V6.66732Z" fill="#D89B1C"/>
</svg>
