<svg width="16" height="16" viewBox="0 0 16 16" fill="none" xmlns="http://www.w3.org/2000/svg">
<path d="M10.0641 8.42318L8.66537 7.61588V4.66732C8.66537 4.49051 8.59513 4.32094 8.47011 4.19591C8.34508 4.07089 8.17551 4.00065 7.9987 4.00065C7.82189 4.00065 7.65232 4.07089 7.5273 4.19591C7.40227 4.32094 7.33203 4.49051 7.33203 4.66732V8.00065C7.332 8.1177 7.36279 8.23269 7.42131 8.33406C7.47982 8.43543 7.564 8.51961 7.66537 8.57812L9.39746 9.57812C9.4733 9.62195 9.55703 9.65041 9.64387 9.66187C9.7307 9.67332 9.81895 9.66756 9.90356 9.6449C9.98817 9.62225 10.0675 9.58314 10.137 9.52982C10.2065 9.4765 10.2648 9.41002 10.3086 9.33416C10.3524 9.2583 10.3808 9.17455 10.3922 9.08771C10.4036 9.00086 10.3978 8.91262 10.3751 8.82802C10.3524 8.74343 10.3132 8.66413 10.2599 8.59466C10.2065 8.5252 10.14 8.46693 10.0641 8.42318ZM7.9987 1.33398C6.68016 1.33398 5.39123 1.72498 4.2949 2.45752C3.19857 3.19006 2.34409 4.23125 1.8395 5.44943C1.33492 6.6676 1.2029 8.00805 1.46013 9.30125C1.71737 10.5945 2.35231 11.7823 3.28466 12.7147C4.21701 13.647 5.40489 14.282 6.6981 14.5392C7.99131 14.7965 9.33175 14.6644 10.5499 14.1598C11.7681 13.6553 12.8093 12.8008 13.5418 11.7045C14.2744 10.6081 14.6654 9.31919 14.6654 8.00065C14.6634 6.23314 13.9604 4.53859 12.7106 3.28878C11.4608 2.03896 9.76621 1.33595 7.9987 1.33398ZM7.9987 13.334C6.94387 13.334 5.91272 13.0212 5.03566 12.4352C4.1586 11.8491 3.47501 11.0162 3.07134 10.0416C2.66768 9.06709 2.56206 7.99474 2.76785 6.96017C2.97363 5.9256 3.48158 4.9753 4.22746 4.22941C4.97334 3.48354 5.92365 2.97558 6.95822 2.7698C7.99278 2.56401 9.06514 2.66963 10.0397 3.07329C11.0142 3.47696 11.8472 4.16055 12.4332 5.03761C13.0192 5.91467 13.332 6.94582 13.332 8.00065C13.3304 9.41464 12.768 10.7703 11.7682 11.7701C10.7683 12.7699 9.41269 13.3324 7.9987 13.334Z" fill="#D89B1C"/>
</svg>
