<svg width="48" height="48" viewBox="0 0 48 48" fill="none" xmlns="http://www.w3.org/2000/svg">
<g clip-path="url(#clip0_412_1272)">
<path d="M44.2017 11.6821C37.5201 0.130053 20.9233 -3.25075 10.2593 4.77325C9.72167 5.16045 9.60007 5.90925 9.98567 6.44685C10.3713 6.98445 11.1217 7.10765 11.6593 6.72045C15.8545 3.69005 21.1137 2.29485 26.2593 2.88365V9.30445C26.3073 11.8965 24.0337 14.1925 21.4353 14.1349C17.4417 14.1333 14.2033 17.3717 14.2033 21.3653C14.0177 24.2133 14.9425 27.9765 12.7889 29.9509C10.7873 32.1077 6.99847 31.1781 4.17927 31.3653C2.05127 25.7397 2.42887 19.4725 5.21927 14.1445C5.94567 12.7589 3.81927 11.6421 3.09127 13.0341C-7.01753 32.4101 12.7777 54.1861 33.0289 45.7445C46.2881 40.3717 51.7697 23.8789 44.2017 11.6821ZM5.40167 34.0581C5.34887 33.9604 5.29767 33.8629 5.24647 33.7653H9.37447C13.2593 33.8341 16.7025 30.4245 16.6113 26.5285V21.3653C16.5697 18.7733 18.8433 16.4757 21.4433 16.5349C25.4305 16.5269 28.6593 13.2917 28.6609 9.30445V3.28045C36.4129 5.07085 42.5297 11.0213 44.5329 18.7221C40.5473 16.4533 35.3313 19.1013 34.3521 23.4709C33.8097 25.1909 34.3265 27.1493 33.2225 28.6885C32.0865 29.7381 30.4609 29.8933 29.2193 30.7829C27.5505 31.7797 26.3361 33.3861 25.8305 35.2629C25.1537 38.6101 28.5169 41.6773 31.7857 41.1669C33.5969 40.7797 33.5521 41.2421 34.1025 42.5861C23.8209 48.1572 10.9713 44.3381 5.40167 34.0581ZM36.1793 41.2949C35.4577 39.5045 34.7297 38.2853 31.4145 38.8021C30.4801 38.8965 29.5569 38.5445 28.9233 37.8501C27.1521 36.2021 28.9137 33.7045 30.5921 32.7685C32.0337 31.9157 33.7777 31.6181 34.9681 30.3509C36.5377 28.6133 36.2465 26.2805 36.6561 24.1557C37.0561 22.4581 38.2865 21.0773 39.9265 20.4853C42.2161 19.6901 45.5697 21.2821 45.2161 23.9541C45.2129 30.8629 41.8401 37.3349 36.1793 41.2949Z" fill="#D89B1C"/>
</g>
<defs>
<clipPath id="clip0_412_1272">
<rect width="48" height="48" fill="white"/>
</clipPath>
</defs>
</svg>
