<svg width="48" height="48" viewBox="0 0 48 48" fill="none" xmlns="http://www.w3.org/2000/svg">
<g clip-path="url(#clip0_412_1246)">
<path d="M45.613 20.4496C40.7618 12.8064 34.2962 6.3168 26.6706 1.44C25.061 0.331198 22.933 0.331198 21.3234 1.44C13.6994 6.32 7.23539 12.8096 2.38899 20.4544C1.05619 22.4992 0.364987 24.8944 0.401787 27.3344L0.553787 38.8544C1.72819 47.0336 9.57619 46.8224 16.0786 47.168C19.9538 47.3648 24.1682 47.456 28.1762 47.3424C35.4034 46.712 46.2722 48.3504 47.4562 38.736L47.6002 27.3216C47.629 24.8848 46.9378 22.4944 45.613 20.4496ZM45.0706 38.5904C44.3218 44.7232 37.8514 44.3504 33.0578 44.6912V37.9424C33.2018 31.5872 26.2834 27.0368 20.4946 29.5888C19.0546 30.2096 19.9826 32.4048 21.4322 31.7984C25.6434 29.9648 30.7954 33.3104 30.6578 37.9424V44.8224C26.2258 45.0832 21.6066 45.0064 17.3426 44.8096C17.4002 43.6704 17.1906 37.4336 17.5026 36.4496C17.8994 34.9328 15.5938 34.3168 15.1826 35.8336C14.733 37.2704 15.005 43.1168 14.9362 44.68C10.2626 44.3392 3.78739 44.728 2.94579 38.7104L2.80179 27.3008C2.77139 25.3376 3.32819 23.4112 4.40179 21.7664C9.08339 14.3856 15.3234 8.12 22.6866 3.408C23.4722 2.856 24.5218 2.856 25.3074 3.408C32.6738 8.1152 38.9202 14.3792 43.605 21.76C44.6722 23.408 45.229 25.3344 45.205 27.2976L45.0706 38.5904Z" fill="#D89B1C"/>
<path d="M24.0018 10.3428C16.5954 10.5332 16.6002 21.3908 24.005 21.5748C31.413 21.3828 31.4034 10.5348 24.0018 10.3428ZM24.0018 19.1748C19.7746 19.1012 19.7778 12.8116 24.005 12.7428C28.2322 12.818 28.2258 19.1028 24.0018 19.1748Z" fill="#D89B1C"/>
</g>
<defs>
<clipPath id="clip0_412_1246">
<rect width="48" height="48" fill="white"/>
</clipPath>
</defs>
</svg>
