<svg width="48" height="48" viewBox="0 0 48 48" fill="none" xmlns="http://www.w3.org/2000/svg">
<g clip-path="url(#clip0_412_1277)">
<path d="M37.0417 12.93H31.9857C31.6209 12.9332 31.3313 12.6004 31.3841 12.2388L31.9121 8.46759C32.4849 4.73639 29.1873 1.35719 25.4481 1.81639C23.7073 2.04039 22.1457 3.00359 21.1649 4.45959L12.1905 17.234C9.69768 11.09 0.376078 12.93 0.398478 19.5572V40.1652C0.606478 48.242 12.4449 48.2516 12.6545 40.1652V20.7476L23.1297 5.83879C23.7121 4.94759 24.6497 4.34919 25.7041 4.19719C27.6081 3.97959 29.3281 5.34599 29.5473 7.24999C29.6721 7.79079 29.0657 11.2916 29.0081 11.906C28.7425 13.6964 30.1777 15.3428 31.9857 15.33H37.0417C39.2817 15.33 45.2017 17.8388 45.2017 23.49C45.2017 29.4004 39.2017 42.7956 33.4961 42.7956C28.4417 42.7556 23.4097 42.1252 18.5009 40.9204C16.9809 40.5396 16.3985 42.8692 17.9217 43.25C23.0193 44.5012 28.2465 45.1556 33.4961 45.1956C41.3457 45.1956 47.6017 29.6084 47.6017 23.49C47.5985 16.5556 40.7265 12.93 37.0417 12.93ZM10.2545 40.1652C10.1313 45.0756 2.92328 45.0852 2.79848 40.1652V19.5572C2.92168 14.6468 10.1297 14.6372 10.2545 19.5572V40.1652Z" fill="#D89B1C"/>
<path d="M6.52622 38.4883C4.25102 38.5267 4.25102 41.9123 6.52622 41.9507C8.80142 41.9123 8.80142 38.5267 6.52622 38.4883Z" fill="#D89B1C"/>
</g>
<defs>
<clipPath id="clip0_412_1277">
<rect width="48" height="48" fill="white"/>
</clipPath>
</defs>
</svg>
