<svg width="20" height="20" viewBox="0 0 20 20" fill="none" xmlns="http://www.w3.org/2000/svg">
<path d="M6.66667 10.0003H8.33333C8.55435 10.0003 8.76631 9.91253 8.92259 9.75625C9.07887 9.59997 9.16667 9.38801 9.16667 9.16699C9.16667 8.94598 9.07887 8.73402 8.92259 8.57774C8.76631 8.42146 8.55435 8.33366 8.33333 8.33366H6.66667C6.44565 8.33366 6.23369 8.42146 6.07741 8.57774C5.92113 8.73402 5.83333 8.94598 5.83333 9.16699C5.83333 9.38801 5.92113 9.59997 6.07741 9.75625C6.23369 9.91253 6.44565 10.0003 6.66667 10.0003ZM14.1667 5.00033H10V3.33366H10.8333C11.0543 3.33366 11.2663 3.24586 11.4226 3.08958C11.5789 2.9333 11.6667 2.72134 11.6667 2.50033C11.6667 2.27931 11.5789 2.06735 11.4226 1.91107C11.2663 1.75479 11.0543 1.66699 10.8333 1.66699H9.16667C8.94565 1.66699 8.73369 1.75479 8.57741 1.91107C8.42113 2.06735 8.33333 2.27931 8.33333 2.50033V5.00033H5.83333C4.94928 5.00033 4.10143 5.35151 3.47631 5.97664C2.85119 6.60176 2.5 7.4496 2.5 8.33366V13.3337C2.5 13.5547 2.5878 13.7666 2.74408 13.9229C2.90036 14.0792 3.11232 14.167 3.33333 14.167H8.33333V17.5003C8.33333 17.7213 8.42113 17.9333 8.57741 18.0896C8.73369 18.2459 8.94565 18.3337 9.16667 18.3337C9.38768 18.3337 9.59964 18.2459 9.75592 18.0896C9.9122 17.9333 10 17.7213 10 17.5003V14.167H16.6667C16.8877 14.167 17.0996 14.0792 17.2559 13.9229C17.4122 13.7666 17.5 13.5547 17.5 13.3337V8.33366C17.5 7.4496 17.1488 6.60176 16.5237 5.97664C15.8986 5.35151 15.0507 5.00033 14.1667 5.00033ZM10.8333 8.33366V12.5003H4.16667V8.33366C4.16667 7.89163 4.34226 7.46771 4.65482 7.15515C4.96738 6.84259 5.39131 6.66699 5.83333 6.66699H11.3C10.997 7.17032 10.8358 7.74619 10.8333 8.33366ZM15.8333 12.5003H12.5V8.33366C12.5 7.89163 12.6756 7.46771 12.9882 7.15515C13.3007 6.84259 13.7246 6.66699 14.1667 6.66699C14.6087 6.66699 15.0326 6.84259 15.3452 7.15515C15.6577 7.46771 15.8333 7.89163 15.8333 8.33366V12.5003Z" fill="#212121"/>
</svg>
