<svg width="24" height="24" viewBox="0 0 24 24" fill="none" xmlns="http://www.w3.org/2000/svg">
<path fill-rule="evenodd" clip-rule="evenodd" d="M13.8462 13.7186V13.7188H16.9231C17.4886 13.7188 17.9487 13.2807 17.9487 12.7422V10.5938H17.9485V12.742C17.9485 13.2805 17.4884 13.7186 16.9229 13.7186H13.8462ZM17.2955 10.4094C17.1918 10.3045 17.1282 10.1632 17.1282 10.0078C17.1282 9.68422 17.4037 9.42188 17.7436 9.42188H19.3846C19.5611 9.42188 19.7203 9.49264 19.8325 9.60601C19.7203 9.49253 19.561 9.42168 19.3844 9.42168H17.7434C17.4035 9.42168 17.128 9.68402 17.128 10.0076C17.128 10.1631 17.1917 10.3045 17.2955 10.4094ZM12.6154 18.6478V18.648L15.8869 19.6863C15.9841 19.7172 16.069 19.7695 16.1366 19.8367C16.0689 19.7694 15.984 19.717 15.8867 19.6861L12.6154 18.6478ZM15.2493 21.8208C15.1426 21.7154 15.0769 21.572 15.0769 21.4141V20.6645L15.0767 20.6645V21.4139C15.0767 21.5719 15.1425 21.7154 15.2493 21.8208ZM11.557 21.4301C11.4503 21.3248 11.3846 21.1814 11.3846 21.0234V19.8833L11.3844 19.8833V21.0232C11.3844 21.1813 11.4502 21.3247 11.557 21.4301ZM7.8647 21.8208C7.75796 21.7154 7.69231 21.572 7.69231 21.4141V20.2422C7.69231 19.99 7.86178 19.7661 8.11311 19.6863L11.3846 18.648V17.2344H11.3844V18.6478L8.11291 19.6861C7.86159 19.7659 7.69211 19.9898 7.69211 20.242V21.4139C7.69211 21.5719 7.75784 21.7154 7.8647 21.8208ZM8.19877 16.6848C7.88501 16.3696 7.69231 15.9441 7.69231 15.4766V14.8906H7.69211V15.4764C7.69211 15.944 7.8849 16.3696 8.19877 16.6848ZM5.44187 14.2213C5.057 13.8358 4.82051 13.3148 4.82051 12.7422V10.5938H4.82032V12.742C4.82032 13.3147 5.05689 13.8358 5.44187 14.2213ZM4.16729 10.4094C4.06357 10.3045 4 10.1632 4 10.0078C4 9.68422 4.27553 9.42188 4.61538 9.42188H6.25641C6.43293 9.42188 6.59209 9.49264 6.70431 9.60601C6.59208 9.49253 6.43283 9.42168 6.25622 9.42168H4.61519C4.27533 9.42168 3.9998 9.68402 3.9998 10.0076C3.9998 10.1631 4.06345 10.3045 4.16729 10.4094ZM6.35183 13.4322C6.53756 13.6091 6.79405 13.7188 7.07692 13.7188H10.1538V12.5469H10.1537V13.7186H7.07673C6.79396 13.7186 6.53755 13.609 6.35183 13.4322ZM7.89272 11.9959C7.88727 11.9904 7.88185 11.9849 7.87647 11.9793C7.52788 11.6186 7.35249 11.1316 7.39524 10.6431L8.01063 3.61184C8.08972 2.70801 8.89789 2 9.85042 2H14.1496C14.6525 2 15.1152 2.19736 15.4515 2.5167C15.1151 2.19725 14.6524 1.9998 14.1494 1.9998H9.85023C8.89769 1.9998 8.08953 2.70781 8.01043 3.61164L7.39505 10.6429C7.3523 11.1314 7.52768 11.6184 7.87628 11.9791C7.88172 11.9847 7.88721 11.9903 7.89272 11.9959ZM9.23484 12.7467H9.95365V13.5186H7.07673C6.61229 13.5186 6.25109 13.1609 6.25109 12.742V10.7936H6.25622C6.69717 10.7936 7.0716 10.4508 7.0716 10.0076C7.0716 9.56444 6.69717 9.22168 6.25622 9.22168H4.61519C4.17423 9.22168 3.7998 9.56444 3.7998 10.0076C3.7998 10.4508 4.17423 10.7936 4.61519 10.7936H4.62032V12.742C4.62032 14.0462 5.73144 15.0904 7.07673 15.0904H7.49211V15.4764C7.49211 16.5652 8.41919 17.4342 9.53827 17.4342H11.1844V18.5014L8.05238 19.4955C7.7232 19.6 7.49211 19.8973 7.49211 20.242V21.4139C7.49211 21.857 7.86654 22.1998 8.3075 22.1998C8.74846 22.1998 9.12288 21.857 9.12288 21.4139V20.8107L11.1844 20.1564V21.0232C11.1844 21.4664 11.5588 21.8092 11.9998 21.8092C12.4408 21.8092 12.8152 21.4664 12.8152 21.0232V20.1564L14.8767 20.8107V21.4139C14.8767 21.857 15.2512 22.1998 15.6921 22.1998C16.1331 22.1998 16.5075 21.857 16.5075 21.4139V20.242C16.5075 19.8973 16.2764 19.6 15.9472 19.4955L12.8152 18.5014V17.4342H14.4613C15.5804 17.4342 16.5075 16.5652 16.5075 15.4764V15.0904H16.9229C18.2682 15.0904 19.3793 14.0462 19.3793 12.742V10.7936H19.3844C19.8254 10.7936 20.1998 10.4508 20.1998 10.0076C20.1998 9.56444 19.8254 9.22168 19.3844 9.22168H17.7434C17.3024 9.22168 16.928 9.56444 16.928 10.0076C16.928 10.4508 17.3024 10.7936 17.7434 10.7936H17.7485V12.742C17.7485 13.1609 17.3873 13.5186 16.9229 13.5186H14.046V12.7467H14.7648C15.3322 12.7467 15.8798 12.5189 16.2671 12.1181C16.6549 11.7168 16.8517 11.1731 16.8038 10.6255L16.1884 3.5942C16.0995 2.57914 15.1975 1.7998 14.1494 1.7998H9.85023C8.80216 1.7998 7.90002 2.57913 7.81119 3.5942L7.19581 10.6255C7.14788 11.1731 7.34467 11.7168 7.73246 12.1181C8.11984 12.5189 8.66738 12.7467 9.23484 12.7467ZM14.1494 3.37168C14.3714 3.37168 14.5468 3.53638 14.5634 3.72637L15.1788 10.7577C15.1881 10.8636 15.1525 10.9652 15.0738 11.0466C14.9947 11.1285 14.8863 11.1748 14.7647 11.1748H9.22873C9.10971 11.1732 9.00356 11.1271 8.92577 11.0466C8.84706 10.9652 8.81152 10.8636 8.82079 10.7577L9.43617 3.72642C9.45281 3.53637 9.62826 3.37168 9.85023 3.37168H14.1494ZM12.4152 12.7467V13.5186H11.5844V12.7467H12.4152ZM14.8767 15.4764C14.8767 15.6799 14.6996 15.8623 14.4613 15.8623H9.53827C9.30005 15.8623 9.12288 15.6799 9.12288 15.4764V15.0904H14.8767V15.4764ZM11.3846 13.7186V13.7188H12.6154V12.5469H12.6152V13.7186H11.3846ZM15.0767 15.4764C15.0767 15.7995 14.8007 16.0623 14.4613 16.0623H9.53827C9.36203 16.0623 9.20286 15.9914 9.09056 15.878C9.20287 15.9915 9.36212 16.0625 9.53846 16.0625H14.4615C14.8009 16.0625 15.0769 15.7996 15.0769 15.4766V14.8906H15.0767V15.4764Z" fill="#D89B1C"/>
</svg>
