<svg width="20" height="20" viewBox="0 0 20 20" fill="none" xmlns="http://www.w3.org/2000/svg">
<path d="M18.333 1.66699H1.66634C1.44533 1.66699 1.23337 1.75479 1.07709 1.91107C0.920805 2.06735 0.833008 2.27931 0.833008 2.50033V9.16699C0.833008 9.38801 0.920805 9.59997 1.07709 9.75625C1.23337 9.91253 1.44533 10.0003 1.66634 10.0003H4.16634V17.5003C4.16634 17.7213 4.25414 17.9333 4.41042 18.0896C4.5667 18.2459 4.77866 18.3337 4.99967 18.3337H14.9997C15.2207 18.3337 15.4327 18.2459 15.5889 18.0896C15.7452 17.9333 15.833 17.7213 15.833 17.5003V10.0003H18.333C18.554 10.0003 18.766 9.91253 18.9223 9.75625C19.0785 9.59997 19.1663 9.38801 19.1663 9.16699V2.50033C19.1663 2.27931 19.0785 2.06735 18.9223 1.91107C18.766 1.75479 18.554 1.66699 18.333 1.66699V1.66699ZM5.83301 16.667V15.0003C6.27504 15.0003 6.69896 15.1759 7.01152 15.4885C7.32408 15.801 7.49967 16.225 7.49967 16.667H5.83301ZM14.1663 16.667H12.4997C12.4997 16.225 12.6753 15.801 12.9878 15.4885C13.3004 15.1759 13.7243 15.0003 14.1663 15.0003V16.667ZM14.1663 13.3337C13.2823 13.3337 12.4344 13.6848 11.8093 14.31C11.1842 14.9351 10.833 15.7829 10.833 16.667H9.16634C9.16634 15.7829 8.81515 14.9351 8.19003 14.31C7.56491 13.6848 6.71706 13.3337 5.83301 13.3337V6.66699H14.1663V13.3337ZM17.4997 8.33366H15.833V5.83366C15.833 5.61265 15.7452 5.40068 15.5889 5.2444C15.4327 5.08812 15.2207 5.00033 14.9997 5.00033H4.99967C4.77866 5.00033 4.5667 5.08812 4.41042 5.2444C4.25414 5.40068 4.16634 5.61265 4.16634 5.83366V8.33366H2.49967V3.33366H17.4997V8.33366ZM9.99967 12.5003C10.4941 12.5003 10.9775 12.3537 11.3886 12.079C11.7997 11.8043 12.1202 11.4138 12.3094 10.957C12.4986 10.5002 12.5481 9.99755 12.4516 9.5126C12.3552 9.02765 12.1171 8.58219 11.7674 8.23256C11.4178 7.88293 10.9724 7.64483 10.4874 7.54836C10.0024 7.4519 9.49978 7.50141 9.04297 7.69063C8.58615 7.87985 8.1957 8.20028 7.921 8.6114C7.6463 9.02252 7.49967 9.50587 7.49967 10.0003C7.49967 10.6634 7.76307 11.2993 8.23191 11.7681C8.70075 12.2369 9.33663 12.5003 9.99967 12.5003ZM9.99967 9.16699C10.1645 9.16699 10.3256 9.21587 10.4627 9.30743C10.5997 9.399 10.7065 9.52915 10.7696 9.68142C10.8326 9.83369 10.8492 10.0012 10.817 10.1629C10.7848 10.3246 10.7055 10.473 10.5889 10.5896C10.4724 10.7061 10.3239 10.7855 10.1623 10.8176C10.0006 10.8498 9.83304 10.8333 9.68077 10.7702C9.5285 10.7072 9.39835 10.6003 9.30678 10.4633C9.21522 10.3263 9.16634 10.1651 9.16634 10.0003C9.16634 9.77931 9.25414 9.56735 9.41042 9.41107C9.5667 9.25479 9.77866 9.16699 9.99967 9.16699V9.16699Z" fill="#212121"/>
</svg>
