<svg width="20" height="20" viewBox="0 0 20 20" fill="none" xmlns="http://www.w3.org/2000/svg">
<path d="M15.8337 1.66699H4.16699C3.50395 1.66699 2.86807 1.93038 2.39923 2.39923C1.93038 2.86807 1.66699 3.50395 1.66699 4.16699V12.5003C1.66699 13.1634 1.93038 13.7993 2.39923 14.2681C2.86807 14.7369 3.50395 15.0003 4.16699 15.0003H6.36699L5.88366 15.8337C5.73738 16.087 5.66037 16.3744 5.66037 16.667C5.66037 16.9596 5.73738 17.247 5.88366 17.5003C6.0312 17.7559 6.24395 17.9677 6.50017 18.1141C6.7564 18.2605 7.0469 18.3363 7.34199 18.3337H12.7253C13.0176 18.3334 13.3046 18.2562 13.5577 18.1099C13.8107 17.9637 14.0209 17.7534 14.167 17.5003C14.3133 17.247 14.3903 16.9596 14.3903 16.667C14.3903 16.3744 14.3133 16.087 14.167 15.8337L13.6753 15.0003H15.8337C16.4967 15.0003 17.1326 14.7369 17.6014 14.2681C18.0703 13.7993 18.3337 13.1634 18.3337 12.5003V4.16699C18.3337 3.50395 18.0703 2.86807 17.6014 2.39923C17.1326 1.93038 16.4967 1.66699 15.8337 1.66699ZM7.30866 16.667L8.33366 15.0003H11.667L12.667 16.667H7.30866ZM16.667 12.5003C16.667 12.7213 16.5792 12.9333 16.4229 13.0896C16.2666 13.2459 16.0547 13.3337 15.8337 13.3337H4.16699C3.94598 13.3337 3.73402 13.2459 3.57774 13.0896C3.42146 12.9333 3.33366 12.7213 3.33366 12.5003V11.667H16.667V12.5003ZM16.667 10.0003H3.33366V4.16699C3.33366 3.94598 3.42146 3.73402 3.57774 3.57774C3.73402 3.42146 3.94598 3.33366 4.16699 3.33366H15.8337C16.0547 3.33366 16.2666 3.42146 16.4229 3.57774C16.5792 3.73402 16.667 3.94598 16.667 4.16699V10.0003Z" fill="#212121"/>
</svg>
