<svg width="48" height="48" viewBox="0 0 48 48" fill="none" xmlns="http://www.w3.org/2000/svg">
<g clip-path="url(#clip0_412_1238)">
<path d="M46.8802 14.4003C46.2434 8.78755 41.8306 4.34915 36.221 3.68035C36.133 2.62115 36.6898 0.478747 35.021 0.435547C33.3938 0.472347 33.8914 2.51555 33.821 3.55555C31.0034 3.43395 28.1554 3.36035 25.2146 3.36035C25.1714 2.34115 25.573 0.467547 24.0146 0.435547C22.4578 0.465947 22.8578 2.34275 22.8146 3.36035C19.8722 3.37475 17.0242 3.44195 14.2082 3.55555C14.1362 2.51235 14.6354 0.473947 13.0082 0.435547C11.3393 0.477147 11.8961 2.62435 11.8082 3.68035C6.19695 4.34915 1.78415 8.78755 1.14735 14.4003C0.243349 22.5347 -0.0782512 30.9699 1.69615 38.9987C2.19535 40.4804 4.46255 39.7411 3.97455 38.2435C2.36975 30.5315 2.65455 22.4691 3.53295 14.6707C4.03055 10.2723 7.42895 6.76035 11.8082 6.11875C11.8594 7.14435 11.4274 9.08515 13.0082 9.11555C14.6482 9.08035 14.1314 6.99235 14.2082 5.94915C17.0242 5.83395 19.8722 5.76675 22.8146 5.75235C22.9218 6.83715 22.3042 9.05955 24.0146 9.11555C25.7234 9.05955 25.109 6.84035 25.2146 5.76035C28.157 5.77475 31.005 5.84195 33.821 5.95715C33.8962 7.00355 33.3826 9.07875 35.021 9.11555C36.6114 9.07395 36.165 7.15235 36.221 6.11875C40.6002 6.76035 43.997 10.2723 44.4946 14.6707C45.413 21.8259 45.413 29.0787 44.4946 36.2339C43.981 40.938 40.1602 44.5924 35.4386 44.8995C31.7122 45.0771 27.9746 45.1651 24.013 45.1651C18.8146 44.8404 13.6978 45.8051 8.93135 43.9588C8.33615 43.6675 7.61775 43.9139 7.32655 44.5107C6.03215 48.5043 21.2498 47.2739 24.013 47.5652C28.0146 47.5652 31.7874 47.4771 35.5538 47.2963C41.4498 46.9267 46.2274 42.3731 46.8786 36.5011C47.8194 29.1667 47.8194 21.7347 46.8802 14.4003Z" fill="#D89B1C"/>
<path d="M36.7328 20.7361C36.7328 20.0737 36.1952 19.5361 35.5328 19.5361H12.4944C11.832 19.5361 11.2944 20.0737 11.2944 20.7361C11.2944 21.3985 11.832 21.9361 12.4944 21.9361H35.5344C36.1952 21.9345 36.7328 21.3985 36.7328 20.7361Z" fill="#D89B1C"/>
<path d="M15.4372 30.002C13.874 30.0084 13.8644 32.3956 15.4372 32.402H32.5924C34.1556 32.3956 34.1652 30.0084 32.5924 30.002H15.4372Z" fill="#D89B1C"/>
</g>
<defs>
<clipPath id="clip0_412_1238">
<rect width="48" height="48" fill="white"/>
</clipPath>
</defs>
</svg>
