<svg width="48" height="48" viewBox="0 0 48 48" fill="none" xmlns="http://www.w3.org/2000/svg">
<path d="M16.7606 17.7067C18.1525 20.6059 20.0501 23.3232 22.4533 25.7264C24.8564 28.1295 27.5737 30.0271 30.473 31.4191C30.7223 31.5388 30.847 31.5987 31.0048 31.6447C31.5655 31.8082 32.254 31.6908 32.7289 31.3507C32.8625 31.255 32.9768 31.1407 33.2055 30.9121C33.9047 30.2129 34.2543 29.8633 34.6058 29.6347C35.9316 28.7727 37.6408 28.7727 38.9666 29.6347C39.3181 29.8633 39.6677 30.2129 40.3669 30.9121L40.7567 31.3018C41.8196 32.3647 42.351 32.8962 42.6397 33.4669C43.2138 34.6021 43.2138 35.9426 42.6397 37.0777C42.351 37.6485 41.8196 38.1799 40.7567 39.2428L40.4414 39.5581C39.3822 40.6173 38.8525 41.1469 38.1325 41.5514C37.3335 42.0003 36.0925 42.323 35.176 42.3203C34.3501 42.3178 33.7857 42.1576 32.6568 41.8372C26.59 40.1153 20.8653 36.8663 16.0893 32.0903C11.3134 27.3144 8.06441 21.5897 6.34247 15.5229C6.02206 14.394 5.86185 13.8295 5.85939 13.0036C5.85666 12.0872 6.17939 10.8462 6.62823 10.0472C7.03273 9.32714 7.56235 8.79751 8.62159 7.73827L8.93686 7.423C9.99975 6.36011 10.5312 5.82867 11.102 5.53998C12.2371 4.96584 13.5776 4.96584 14.7127 5.53998C15.2835 5.82867 15.8149 6.36011 16.8778 7.423L17.2676 7.81273C17.9668 8.51195 18.3164 8.86155 18.5449 9.21311C19.4069 10.5389 19.4069 12.2481 18.5449 13.5738C18.3164 13.9254 17.9668 14.275 17.2676 14.9742C17.0389 15.2028 16.9246 15.3171 16.8289 15.4508C16.4889 15.9256 16.3715 16.6141 16.535 17.1749C16.581 17.3326 16.6408 17.4573 16.7606 17.7067Z" stroke="#D89B1C" stroke-width="3.2" stroke-linecap="round" stroke-linejoin="round"/>
</svg>
