<svg width="20" height="20" viewBox="0 0 20 20" fill="none" xmlns="http://www.w3.org/2000/svg">
<path d="M14.0331 9.69208C14.3669 9.69621 14.6981 9.63345 15.0073 9.5075C15.3164 9.38155 15.5972 9.19497 15.8331 8.95875L18.1914 6.60042C18.3466 6.44428 18.4337 6.23307 18.4337 6.01292C18.4337 5.79276 18.3466 5.58155 18.1914 5.42542C18.1139 5.34731 18.0218 5.28531 17.9202 5.24301C17.8187 5.2007 17.7098 5.17892 17.5997 5.17892C17.4897 5.17892 17.3808 5.2007 17.2793 5.24301C17.1777 5.28531 17.0855 5.34731 17.0081 5.42542L14.6247 7.77542C14.5473 7.85352 14.4551 7.91552 14.3536 7.95782C14.252 8.00013 14.1431 8.02191 14.0331 8.02191C13.9231 8.02191 13.8141 8.00013 13.7126 7.95782C13.611 7.91552 13.5189 7.85352 13.4414 7.77542V7.77542L16.3914 4.83375C16.4691 4.75605 16.5307 4.66381 16.5728 4.56229C16.6148 4.46077 16.6365 4.35196 16.6365 4.24208C16.6365 4.1322 16.6148 4.02339 16.5728 3.92187C16.5307 3.82036 16.4691 3.72811 16.3914 3.65042C16.3137 3.57272 16.2215 3.51108 16.12 3.46903C16.0184 3.42698 15.9096 3.40534 15.7997 3.40534C15.6899 3.40534 15.5811 3.42698 15.4795 3.46903C15.378 3.51108 15.2858 3.57272 15.2081 3.65042L12.2664 6.60042C12.1112 6.44428 12.0241 6.23307 12.0241 6.01292C12.0241 5.79276 12.1112 5.58155 12.2664 5.42542L14.6247 3.06708C14.7024 2.98938 14.7641 2.89714 14.8061 2.79562C14.8482 2.6941 14.8698 2.5853 14.8698 2.47542C14.8698 2.36553 14.8482 2.25673 14.8061 2.15521C14.7641 2.05369 14.7024 1.96145 14.6247 1.88375C14.547 1.80605 14.4548 1.74442 14.3533 1.70237C14.2518 1.66031 14.143 1.63867 14.0331 1.63867C13.9232 1.63867 13.8144 1.66031 13.7129 1.70237C13.6114 1.74442 13.5191 1.80605 13.4414 1.88375L11.0831 4.24208C10.6149 4.71083 10.3519 5.34625 10.3519 6.00875C10.3519 6.67125 10.6149 7.30666 11.0831 7.77542V7.77542L9.99975 8.85042L3.10808 1.93375L3.02475 1.88375C2.98215 1.84658 2.93444 1.81571 2.88308 1.79208L2.73308 1.73375L2.63308 1.66708H2.57475H2.40808C2.35839 1.65914 2.30776 1.65914 2.25808 1.66708C2.20763 1.68544 2.15996 1.71068 2.11641 1.74208L1.98308 1.82542H1.92475L1.87475 1.90875C1.83948 1.95275 1.80876 2.00021 1.78308 2.05042C1.75867 2.10123 1.73914 2.15425 1.72475 2.20875C1.72475 2.20875 1.72475 2.26708 1.72475 2.30041C1.52252 3.70992 1.65145 5.14716 2.10131 6.49818C2.55117 7.84919 3.30958 9.07683 4.31641 10.0837L6.51641 12.2754L2.00808 16.7754C1.92997 16.8529 1.86798 16.9451 1.82567 17.0466C1.78336 17.1482 1.76158 17.2571 1.76158 17.3671C1.76158 17.4771 1.78336 17.586 1.82567 17.6876C1.86798 17.7891 1.92997 17.8813 2.00808 17.9587C2.08595 18.036 2.17829 18.0971 2.27982 18.1386C2.38135 18.18 2.49007 18.2011 2.59975 18.2004C2.70942 18.2011 2.81814 18.18 2.91967 18.1386C3.0212 18.0971 3.11355 18.036 3.19141 17.9587L8.24975 12.9754L10.6081 10.6171L12.2747 8.95042C12.7397 9.42041 13.372 9.68709 14.0331 9.69208V9.69208ZM7.65808 11.2087L5.46641 9.00875C4.26513 7.79103 3.51295 6.20147 3.33308 4.50042L8.84141 10.0004L7.65808 11.2087ZM12.8581 11.6837C12.7012 11.5257 12.4879 11.4365 12.2652 11.4357C12.0425 11.4349 11.8286 11.5227 11.6706 11.6796C11.5126 11.8365 11.4233 12.0498 11.4226 12.2725C11.4218 12.4952 11.5095 12.7091 11.6664 12.8671L16.9164 18.1171C17.0756 18.2619 17.2846 18.3396 17.4997 18.3337C17.6094 18.3344 17.7181 18.3134 17.8197 18.2719C17.9212 18.2304 18.0135 18.1693 18.0914 18.0921C18.1695 18.0146 18.2315 17.9224 18.2738 17.8209C18.3161 17.7193 18.3379 17.6104 18.3379 17.5004C18.3379 17.3904 18.3161 17.2815 18.2738 17.1799C18.2315 17.0784 18.1695 16.9862 18.0914 16.9087L12.8581 11.6837Z" fill="#212121"/>
</svg>
