<svg width="20" height="20" viewBox="0 0 20 20" fill="none" xmlns="http://www.w3.org/2000/svg">
<g clip-path="url(#clip0_202_5950)">
<path d="M18.333 4.16634H1.66634C1.44533 4.16634 1.23337 4.25414 1.07709 4.41042C0.920805 4.5667 0.833008 4.77866 0.833008 4.99967V8.33301C0.834457 8.8488 0.995407 9.35151 1.29379 9.77223C1.59217 10.1929 2.01338 10.5111 2.49967 10.683V18.333C2.49967 18.554 2.58747 18.766 2.74375 18.9223C2.90003 19.0785 3.11199 19.1663 3.33301 19.1663H16.6663C16.8874 19.1663 17.0993 19.0785 17.2556 18.9223C17.4119 18.766 17.4997 18.554 17.4997 18.333V10.683C17.986 10.5111 18.4072 10.1929 18.7056 9.77223C19.0039 9.35151 19.1649 8.8488 19.1663 8.33301V4.99967C19.1663 4.77866 19.0785 4.5667 18.9223 4.41042C18.766 4.25414 18.554 4.16634 18.333 4.16634ZM12.4997 5.83301H14.1663V8.33301C14.1663 8.55402 14.0785 8.76598 13.9223 8.92226C13.766 9.07854 13.554 9.16634 13.333 9.16634C13.112 9.16634 12.9 9.07854 12.7438 8.92226C12.5875 8.76598 12.4997 8.55402 12.4997 8.33301V5.83301ZM9.16634 5.83301H10.833V8.33301C10.833 8.55402 10.7452 8.76598 10.5889 8.92226C10.4327 9.07854 10.2207 9.16634 9.99967 9.16634C9.77866 9.16634 9.5667 9.07854 9.41042 8.92226C9.25414 8.76598 9.16634 8.55402 9.16634 8.33301V5.83301ZM5.83301 5.83301H7.49967V8.33301C7.49967 8.55402 7.41188 8.76598 7.2556 8.92226C7.09932 9.07854 6.88736 9.16634 6.66634 9.16634C6.44533 9.16634 6.23337 9.07854 6.07709 8.92226C5.92081 8.76598 5.83301 8.55402 5.83301 8.33301V5.83301ZM3.33301 9.16634C3.11199 9.16634 2.90003 9.07854 2.74375 8.92226C2.58747 8.76598 2.49967 8.55402 2.49967 8.33301V5.83301H4.16634V8.33301C4.16634 8.55402 4.07854 8.76598 3.92226 8.92226C3.76598 9.07854 3.55402 9.16634 3.33301 9.16634ZM11.6663 17.4997H8.33301V15.833C8.33301 15.391 8.5086 14.9671 8.82116 14.6545C9.13372 14.3419 9.55765 14.1663 9.99967 14.1663C10.4417 14.1663 10.8656 14.3419 11.1782 14.6545C11.4907 14.9671 11.6663 15.391 11.6663 15.833V17.4997ZM15.833 17.4997H13.333V15.833C13.333 14.949 12.9818 14.1011 12.3567 13.476C11.7316 12.8509 10.8837 12.4997 9.99967 12.4997C9.11562 12.4997 8.26777 12.8509 7.64265 13.476C7.01753 14.1011 6.66634 14.949 6.66634 15.833V17.4997H4.16634V10.683C4.47265 10.5693 4.75521 10.3998 4.99967 10.183C5.45803 10.593 6.0514 10.8196 6.66634 10.8196C7.28129 10.8196 7.87466 10.593 8.33301 10.183C8.79136 10.593 9.38473 10.8196 9.99967 10.8196C10.6146 10.8196 11.208 10.593 11.6663 10.183C12.1247 10.593 12.7181 10.8196 13.333 10.8196C13.948 10.8196 14.5413 10.593 14.9997 10.183C15.2441 10.3998 15.5267 10.5693 15.833 10.683V17.4997ZM17.4997 8.33301C17.4997 8.55402 17.4119 8.76598 17.2556 8.92226C17.0993 9.07854 16.8874 9.16634 16.6663 9.16634C16.4453 9.16634 16.2334 9.07854 16.0771 8.92226C15.9208 8.76598 15.833 8.55402 15.833 8.33301V5.83301H17.4997V8.33301ZM3.58301 2.49967H16.6663C16.8874 2.49967 17.0993 2.41188 17.2556 2.2556C17.4119 2.09932 17.4997 1.88735 17.4997 1.66634C17.4997 1.44533 17.4119 1.23337 17.2556 1.07709C17.0993 0.920805 16.8874 0.833008 16.6663 0.833008H3.58301C3.36199 0.833008 3.15003 0.920805 2.99375 1.07709C2.83747 1.23337 2.74967 1.44533 2.74967 1.66634C2.74967 1.88735 2.83747 2.09932 2.99375 2.2556C3.15003 2.41188 3.36199 2.49967 3.58301 2.49967V2.49967Z" fill="#212121"/>
</g>
<defs>
<clipPath id="clip0_202_5950">
<rect width="20" height="20" fill="white"/>
</clipPath>
</defs>
</svg>
