<svg width="24" height="24" viewBox="0 0 24 24" fill="none" xmlns="http://www.w3.org/2000/svg">
<path d="M18.3994 4.78027C18.6169 4.78027 18.8257 4.86673 18.9795 5.02051C19.1331 5.17421 19.2197 5.38229 19.2197 5.59961V12C19.2197 12.2174 19.1332 12.4263 18.9795 12.5801C18.8257 12.7337 18.6168 12.8203 18.3994 12.8203C18.1823 12.8202 17.974 12.7336 17.8203 12.5801C17.6666 12.4263 17.5801 12.2174 17.5801 12V7.5791L7.5791 17.5801H12C12.2174 17.5801 12.4263 17.6666 12.5801 17.8203C12.7336 17.974 12.8202 18.1823 12.8203 18.3994C12.8203 18.6168 12.7337 18.8257 12.5801 18.9795C12.4263 19.1332 12.2174 19.2197 12 19.2197H5.59961C5.38229 19.2197 5.17421 19.1331 5.02051 18.9795C4.86673 18.8257 4.78027 18.6169 4.78027 18.3994V12C4.78027 11.8924 4.80162 11.786 4.84277 11.6865C4.88398 11.587 4.94436 11.4961 5.02051 11.4199C5.09659 11.3439 5.18677 11.2833 5.28613 11.2422C5.38551 11.201 5.49205 11.1797 5.59961 11.1797C5.70729 11.1797 5.81458 11.201 5.91406 11.2422C6.0134 11.2834 6.10363 11.3439 6.17969 11.4199C6.25583 11.4961 6.31621 11.587 6.35742 11.6865C6.39853 11.7859 6.41992 11.8924 6.41992 12V16.4209L16.4209 6.41992H12C11.7825 6.41992 11.5737 6.33347 11.4199 6.17969C11.2662 6.02592 11.1797 5.81705 11.1797 5.59961C11.1798 5.38237 11.2664 5.1742 11.4199 5.02051C11.5737 4.86673 11.7825 4.78027 12 4.78027H18.3994Z" fill="#73788C" stroke="#73788C" stroke-width="0.2"/>
</svg>
