<svg width="20" height="20" viewBox="0 0 20 20" fill="none" xmlns="http://www.w3.org/2000/svg">
<path d="M17.6335 13.4413L15.9668 12.483L16.7085 12.283C16.8174 12.2576 16.9201 12.2106 17.0105 12.1447C17.1008 12.0788 17.177 11.9954 17.2344 11.8994C17.2919 11.8034 17.3294 11.6969 17.3448 11.5861C17.3602 11.4753 17.3531 11.3626 17.324 11.2546C17.2949 11.1466 17.2444 11.0456 17.1754 10.9576C17.1065 10.8695 17.0205 10.7962 16.9226 10.7421C16.8247 10.688 16.717 10.6542 16.6057 10.6426C16.4945 10.631 16.3821 10.6419 16.2751 10.6747L13.9251 11.308L11.6668 9.99967L13.9251 8.69134L16.2751 9.32467H16.4918C16.7128 9.35341 16.9362 9.29316 17.1128 9.1572C17.2894 9.02124 17.4047 8.82069 17.4335 8.59967C17.4622 8.37866 17.402 8.15529 17.266 7.97869C17.13 7.80209 16.9295 7.68674 16.7085 7.65801L15.9668 7.49967L17.6335 6.54134C17.7287 6.48662 17.8122 6.41369 17.8792 6.3267C17.9462 6.23972 17.9955 6.14038 18.0241 6.03437C18.0527 5.92835 18.0602 5.81774 18.0461 5.70884C18.032 5.59994 17.9965 5.49488 17.9418 5.39967C17.8871 5.30447 17.8142 5.22097 17.7272 5.15395C17.6402 5.08692 17.5408 5.03769 17.4348 5.00906C17.3288 4.98043 17.2182 4.97296 17.1093 4.98708C17.0004 5.0012 16.8953 5.03662 16.8001 5.09134L15.0001 6.14134L15.2501 5.21634C15.2829 5.10941 15.2938 4.99698 15.2822 4.88574C15.2707 4.77451 15.2368 4.66674 15.1827 4.56887C15.1286 4.47099 15.0553 4.38501 14.9673 4.31605C14.8792 4.24708 14.7782 4.19655 14.6702 4.16745C14.5622 4.13836 14.4495 4.1313 14.3387 4.14669C14.2279 4.16209 14.1214 4.19962 14.0254 4.25706C13.9294 4.3145 13.846 4.39067 13.7801 4.48103C13.7142 4.57139 13.6672 4.67409 13.6418 4.78301L12.9585 7.28301L10.8335 8.55801V5.94967L12.5585 4.22467C12.7137 4.06854 12.8008 3.85733 12.8008 3.63717C12.8008 3.41702 12.7137 3.20581 12.5585 3.04967C12.481 2.97157 12.3888 2.90957 12.2873 2.86727C12.1857 2.82496 12.0768 2.80318 11.9668 2.80318C11.8568 2.80318 11.7479 2.82496 11.6463 2.86727C11.5448 2.90957 11.4526 2.97157 11.3751 3.04967L10.8335 3.59134V1.66634C10.8335 1.44533 10.7457 1.23337 10.5894 1.07709C10.4331 0.920805 10.2211 0.833008 10.0001 0.833008C9.77912 0.833008 9.56716 0.920805 9.41088 1.07709C9.2546 1.23337 9.1668 1.44533 9.1668 1.66634V3.72467L8.4918 3.04967C8.41433 2.97157 8.32217 2.90957 8.22062 2.86727C8.11907 2.82496 8.01015 2.80318 7.90014 2.80318C7.79013 2.80318 7.68121 2.82496 7.57966 2.86727C7.47811 2.90957 7.38594 2.97157 7.30847 3.04967C7.15326 3.20581 7.06614 3.41702 7.06614 3.63717C7.06614 3.85733 7.15326 4.06854 7.30847 4.22467L9.1668 6.08301V8.58301L7.02514 7.31634L6.3418 4.81634C6.31643 4.70742 6.26938 4.60472 6.20348 4.51436C6.13757 4.424 6.05416 4.34783 5.95819 4.2904C5.86223 4.23296 5.75569 4.19542 5.64491 4.18003C5.53414 4.16463 5.4214 4.17169 5.31341 4.20079C5.20542 4.22988 5.10439 4.28042 5.01635 4.34938C4.9283 4.41834 4.85504 4.50432 4.80092 4.6022C4.74681 4.70007 4.71295 4.80784 4.70136 4.91908C4.68977 5.03032 4.70069 5.14275 4.73347 5.24967L5.00014 6.14134L3.20014 5.10801C3.10493 5.05329 2.99987 5.01786 2.89097 5.00374C2.78207 4.98963 2.67146 4.9971 2.56544 5.02573C2.45943 5.05436 2.36009 5.10359 2.27311 5.17061C2.18612 5.23763 2.11319 5.32113 2.05847 5.41634C2.00375 5.51155 1.96832 5.6166 1.9542 5.7255C1.94009 5.8344 1.94756 5.94502 1.97619 6.05103C2.03401 6.26514 2.17452 6.4475 2.3668 6.55801L4.03347 7.49967L3.33347 7.71634C3.11246 7.74507 2.91191 7.86043 2.77594 8.03702C2.63998 8.21362 2.57974 8.43699 2.60847 8.65801C2.6372 8.87902 2.75255 9.07957 2.92915 9.21553C3.10575 9.3515 3.32912 9.41174 3.55014 9.38301H3.7668L6.1168 8.74967L8.33347 9.99967L6.07514 11.308L3.72514 10.6747C3.61487 10.6337 3.49719 10.6166 3.37982 10.6244C3.26246 10.6322 3.14808 10.6647 3.0442 10.7199C2.94032 10.7751 2.84929 10.8516 2.7771 10.9445C2.70492 11.0373 2.65321 11.1444 2.62538 11.2587C2.59755 11.373 2.59423 11.4919 2.61563 11.6075C2.63704 11.7232 2.68268 11.833 2.74957 11.9298C2.81645 12.0265 2.90306 12.108 3.0037 12.1689C3.10434 12.2298 3.21672 12.2687 3.33347 12.283L4.07514 12.483L2.40847 13.4413C2.21619 13.5518 2.07568 13.7342 2.01786 13.9483C1.96003 14.1624 1.98963 14.3907 2.10014 14.583C2.21064 14.7753 2.39301 14.9158 2.60711 14.9736C2.82122 15.0314 3.04952 15.0018 3.2418 14.8913L5.00014 13.858L4.75014 14.783C4.7171 14.8897 4.70584 15.0019 4.71703 15.113C4.72822 15.2241 4.76162 15.3318 4.81526 15.4298C4.8689 15.5277 4.94167 15.6139 5.02926 15.6832C5.11685 15.7524 5.21747 15.8034 5.32514 15.833C5.39713 15.8412 5.46981 15.8412 5.5418 15.833C5.72994 15.8395 5.91471 15.782 6.06603 15.67C6.21735 15.5581 6.3263 15.3981 6.37514 15.2163L7.05847 12.7163L9.1668 11.4413V14.0497L7.4418 15.7747C7.28659 15.9308 7.19947 16.142 7.19947 16.3622C7.19947 16.5823 7.28659 16.7935 7.4418 16.9497C7.51898 17.0284 7.61102 17.0911 7.71258 17.134C7.81414 17.1769 7.92321 17.1992 8.03347 17.1997C8.14373 17.1992 8.25279 17.1769 8.35436 17.134C8.45592 17.0911 8.54796 17.0284 8.62514 16.9497L9.1668 16.408V18.333C9.1668 18.554 9.2546 18.766 9.41088 18.9223C9.56716 19.0785 9.77912 19.1663 10.0001 19.1663C10.2211 19.1663 10.4331 19.0785 10.5894 18.9223C10.7457 18.766 10.8335 18.554 10.8335 18.333V16.2747L11.5085 16.9497C11.5859 17.0278 11.6781 17.0898 11.7797 17.1321C11.8812 17.1744 11.9901 17.1962 12.1001 17.1962C12.2101 17.1962 12.3191 17.1744 12.4206 17.1321C12.5222 17.0898 12.6143 17.0278 12.6918 16.9497C12.847 16.7935 12.9341 16.5823 12.9341 16.3622C12.9341 16.142 12.847 15.9308 12.6918 15.7747L10.8335 13.9163V11.4163L12.9751 12.658L13.6585 15.158C13.7073 15.3398 13.8163 15.4997 13.9676 15.6117C14.1189 15.7237 14.3037 15.7811 14.4918 15.7747C14.5638 15.7829 14.6365 15.7829 14.7085 15.7747C14.8149 15.7466 14.9147 15.6978 15.0021 15.631C15.0895 15.5642 15.1629 15.4807 15.2179 15.3855C15.2729 15.2902 15.3085 15.1849 15.3226 15.0758C15.3367 14.9667 15.3291 14.8558 15.3001 14.7497L15.0001 13.858L16.7835 14.8913C16.8787 14.9461 16.9837 14.9815 17.0926 14.9956C17.2015 15.0097 17.3121 15.0023 17.4182 14.9736C17.5242 14.945 17.6235 14.8958 17.7105 14.8287C17.7975 14.7617 17.8704 14.6782 17.9251 14.583C17.9799 14.4878 18.0153 14.3827 18.0294 14.2738C18.0435 14.1649 18.036 14.0543 18.0074 13.9483C17.9788 13.8423 17.9296 13.743 17.8625 13.656C17.7955 13.569 17.712 13.4961 17.6168 13.4413H17.6335Z" fill="#212121"/>
</svg>
