<svg width="20" height="20" viewBox="0 0 20 20" fill="none" xmlns="http://www.w3.org/2000/svg">
<path d="M14.9997 1.66699H4.99967C4.0792 1.66699 3.33301 2.41318 3.33301 3.33366V16.667C3.33301 17.5875 4.0792 18.3337 4.99967 18.3337H14.9997C15.9201 18.3337 16.6663 17.5875 16.6663 16.667V3.33366C16.6663 2.41318 15.9201 1.66699 14.9997 1.66699Z" stroke="#212121" stroke-width="2" stroke-linecap="round" stroke-linejoin="round"/>
<path d="M10.0003 14.9997C11.8413 14.9997 13.3337 13.5073 13.3337 11.6663C13.3337 9.82539 11.8413 8.33301 10.0003 8.33301C8.15938 8.33301 6.66699 9.82539 6.66699 11.6663C6.66699 13.5073 8.15938 14.9997 10.0003 14.9997Z" stroke="#212121" stroke-width="2" stroke-linecap="round" stroke-linejoin="round"/>
<path d="M10 5H10.0083" stroke="#212121" stroke-width="2" stroke-linecap="round" stroke-linejoin="round"/>
</svg>
