<svg width="48" height="48" viewBox="0 0 48 48" fill="none" xmlns="http://www.w3.org/2000/svg">
<g clip-path="url(#clip0_412_1253)">
<path d="M37.3104 20.4901C39.1584 16.5877 42.4624 12.5893 39.1504 8.85653C35.4096 5.55893 31.44 8.85174 27.5312 10.6997C24.1104 7.52853 21.2736 2.93013 16.464 5.24533C12.168 7.46453 14.0336 12.7109 14.7776 16.4309C14.8256 16.6485 14.7216 16.8709 14.5232 16.9717C12.2848 18.0677 10.112 19.2901 8.0144 20.6357C3.8144 23.1461 5.1216 30.0901 10.0864 30.5957C11.5248 30.6021 11.7136 28.4757 10.3104 28.2165C7.6032 27.8565 6.9904 23.9653 9.3184 22.6485C11.3376 21.3509 13.4304 20.1733 15.5872 19.1173C16.7792 18.5221 17.408 17.1877 17.1072 15.8901C16.824 13.2693 14.664 9.05333 17.5792 7.36053C18.6944 6.76693 20.0608 6.93653 20.9952 7.78453C22.8944 9.43413 24.7072 11.1797 26.4256 13.0149C26.8 13.4069 27.3904 13.4981 27.8656 13.2389C30.3136 11.9029 32.2656 10.9365 34.1936 10.1045C35.2752 9.61014 36.5456 9.78454 37.4528 10.5557C38.2192 11.4613 38.3936 12.7285 37.9024 13.8085C37.0672 15.7429 36.1008 17.6949 34.768 20.1381C34.5104 20.6133 34.6016 21.2021 34.9904 21.5781C36.8256 23.2965 38.5712 25.1093 40.2208 27.0053C41.0688 27.9397 41.2384 29.3077 40.6448 30.4213C38.9632 33.3397 34.7248 31.1781 32.1152 30.8949C30.8176 30.5909 29.48 31.2197 28.888 32.4149C27.832 34.5701 26.6544 36.6645 25.3584 38.6853C24.04 41.0069 20.1504 40.4021 19.7872 37.6917C19.2752 35.1397 19.1408 32.5301 18.9312 29.9525C18.8672 29.5589 18.552 29.2373 18.1856 29.0981C17.744 28.9461 17.28 29.0773 16.9344 29.3781L0.766397 45.5461C-0.326403 46.6405 1.3408 48.3605 2.4624 47.2421L16.7632 32.9429C17.056 37.0421 17.3936 42.4949 22.7312 42.5509C27.52 42.4805 28.9808 36.9237 31.0368 33.4933C31.136 33.2933 31.3616 33.1877 31.5792 33.2405C33.5104 33.6997 35.4656 34.0517 37.4352 34.2949C42.2336 35.0517 45.288 28.9653 42.0448 25.4501C40.7248 23.9125 39.2448 22.3573 37.3104 20.4901Z" fill="#D89B1C"/>
<path d="M28.3953 6.78751C29.0577 6.78751 29.5953 6.24991 29.5953 5.58751V1.59551C29.5953 0.933108 29.0577 0.395508 28.3953 0.395508C27.7329 0.395508 27.1953 0.933108 27.1953 1.59551V5.59551C27.1985 6.25471 27.7345 6.78751 28.3953 6.78751Z" fill="#D89B1C"/>
<path d="M46.4146 18.416H42.4242C40.8562 18.4224 40.8546 20.8096 42.4242 20.816H46.4146C47.9826 20.8096 47.9842 18.4224 46.4146 18.416Z" fill="#D89B1C"/>
<path d="M7.25288 16.4H11.2529C12.8209 16.3936 12.8225 14.0064 11.2529 14H7.25288C5.68488 14.0064 5.68168 16.3936 7.25288 16.4Z" fill="#D89B1C"/>
<path d="M32.8113 35.5684C32.1489 35.5684 31.6113 36.106 31.6113 36.7684V40.7588C31.6113 41.4212 32.1489 41.9588 32.8113 41.9588C33.4737 41.9588 34.0113 41.4212 34.0113 40.7588V36.7684C34.0113 36.106 33.4737 35.5684 32.8113 35.5684Z" fill="#D89B1C"/>
</g>
<defs>
<clipPath id="clip0_412_1253">
<rect width="48" height="48" fill="white"/>
</clipPath>
</defs>
</svg>
