<svg width="48" height="48" viewBox="0 0 48 48" fill="none" xmlns="http://www.w3.org/2000/svg">
<g clip-path="url(#clip0_412_1264)">
<path d="M45.8719 2.13592C43.1071 -0.633677 34.2255 0.406323 27.2607 1.75672C25.8767 2.03192 24.5919 2.67192 23.5391 3.61272C16.1967 10.1183 9.20312 17.0079 2.58872 24.2527C-2.68008 30.3087 2.59032 36.4015 7.02872 40.9615C11.5519 45.3743 17.7231 50.6863 23.7375 45.4015C30.9823 38.7871 37.8719 31.7935 44.3775 24.4511C45.3215 23.4047 45.9679 22.1263 46.2495 20.7455C47.6031 13.7823 48.6367 4.90552 45.8719 2.13592ZM43.8895 20.2863C43.6959 21.2495 43.2479 22.1423 42.5919 22.8735C36.1407 30.1535 29.3071 37.0879 22.1231 43.6463C17.3695 47.8575 12.2351 42.5199 8.72952 39.2687C5.47992 35.7711 0.143916 30.6255 4.36632 25.8831C10.9215 18.6991 17.8527 11.8671 25.1295 5.41432C25.8591 4.75832 26.7519 4.31032 27.7151 4.11832C32.3455 3.38872 40.2911 1.58552 44.1695 3.83352C45.6559 5.31672 45.5455 11.7759 43.8895 20.2863Z" fill="#D89B1C"/>
<path d="M34.6814 17.781C31.7086 20.6914 27.2606 16.4274 30.1662 13.3858C31.411 12.1938 33.3758 12.1938 34.6206 13.3858C35.7358 14.5266 37.459 12.8034 36.3166 11.6882C34.1214 9.59221 30.6654 9.59221 28.4686 11.6882C23.5454 16.9858 31.0206 24.4594 36.3166 19.5378C37.4606 18.4594 35.835 16.717 34.6814 17.781Z" fill="#D89B1C"/>
<path d="M12.2461 28.4942C11.1389 27.4622 9.51655 29.0798 10.5501 30.1902L17.8141 37.4542C18.9229 38.523 20.5821 36.8718 19.5117 35.7582L12.2461 28.4942Z" fill="#D89B1C"/>
</g>
<defs>
<clipPath id="clip0_412_1264">
<rect width="48" height="48" fill="white"/>
</clipPath>
</defs>
</svg>
