<svg width="20" height="20" viewBox="0 0 20 20" fill="none" xmlns="http://www.w3.org/2000/svg">
<path d="M14.4837 12.15C14.3311 12.0857 14.1628 12.0683 14.0003 12.1C13.9481 12.1091 13.8976 12.126 13.8503 12.15C13.7972 12.1682 13.7468 12.1935 13.7003 12.225L13.5753 12.325C13.423 12.4847 13.3367 12.696 13.3337 12.9167C13.333 13.0263 13.354 13.1351 13.3955 13.2366C13.437 13.3381 13.4981 13.4305 13.5753 13.5083C13.6561 13.5844 13.749 13.6464 13.8503 13.6917C14.0029 13.7544 14.1706 13.7705 14.3323 13.7379C14.494 13.7053 14.6424 13.6254 14.7587 13.5083C14.8323 13.4273 14.8915 13.3343 14.9337 13.2333C14.9803 13.1344 15.0031 13.026 15.0003 12.9167C14.9973 12.696 14.9109 12.4847 14.7587 12.325C14.6804 12.2478 14.5867 12.1882 14.4837 12.15ZM16.667 8.9V6.25C16.667 5.58696 16.4036 4.95108 15.9348 4.48224C15.4659 4.0134 14.83 3.75 14.167 3.75H13.517L12.8753 1.81667C12.8194 1.65115 12.7129 1.50739 12.5708 1.4057C12.4288 1.30402 12.2584 1.24955 12.0837 1.25H7.91699C7.74229 1.24955 7.57186 1.30402 7.4298 1.4057C7.28774 1.50739 7.18123 1.65115 7.12533 1.81667L6.48366 3.75H5.83366C5.17062 3.75 4.53473 4.0134 4.06589 4.48224C3.59705 4.95108 3.33366 5.58696 3.33366 6.25V8.9C2.84737 9.07193 2.42616 9.39006 2.12777 9.81078C1.82939 10.2315 1.66844 10.7342 1.66699 11.25V16.25C1.66699 16.471 1.75479 16.683 1.91107 16.8393C2.06735 16.9955 2.27931 17.0833 2.50033 17.0833H3.33366V17.9167C3.33366 18.1377 3.42146 18.3496 3.57774 18.5059C3.73402 18.6622 3.94598 18.75 4.16699 18.75C4.38801 18.75 4.59997 18.6622 4.75625 18.5059C4.91253 18.3496 5.00033 18.1377 5.00033 17.9167V17.0833H15.0003V17.9167C15.0003 18.1377 15.0881 18.3496 15.2444 18.5059C15.4007 18.6622 15.6126 18.75 15.8337 18.75C16.0547 18.75 16.2666 18.6622 16.4229 18.5059C16.5792 18.3496 16.667 18.1377 16.667 17.9167V17.0833H17.5003C17.7213 17.0833 17.9333 16.9955 18.0896 16.8393C18.2459 16.683 18.3337 16.471 18.3337 16.25V11.25C18.3322 10.7342 18.1713 10.2315 17.8729 9.81078C17.5745 9.39006 17.1533 9.07193 16.667 8.9V8.9ZM8.51699 2.91667H11.4837L11.7587 3.75H8.24199L8.51699 2.91667ZM5.00033 6.25C5.00033 6.02899 5.08812 5.81703 5.2444 5.66075C5.40068 5.50447 5.61265 5.41667 5.83366 5.41667H14.167C14.388 5.41667 14.6 5.50447 14.7562 5.66075C14.9125 5.81703 15.0003 6.02899 15.0003 6.25V8.75H5.00033V6.25ZM16.667 15.4167H3.33366V11.25C3.33366 11.029 3.42146 10.817 3.57774 10.6607C3.73402 10.5045 3.94598 10.4167 4.16699 10.4167H15.8337C16.0547 10.4167 16.2666 10.5045 16.4229 10.6607C16.5792 10.817 16.667 11.029 16.667 11.25V15.4167ZM5.51699 12.15C5.4147 12.1897 5.32125 12.2491 5.24199 12.325C5.08971 12.4847 5.0034 12.696 5.00033 12.9167C4.99964 13.0539 5.03283 13.1891 5.09696 13.3104C5.16109 13.4317 5.25417 13.5352 5.36794 13.6119C5.48171 13.6886 5.61265 13.736 5.74913 13.7499C5.88562 13.7638 6.02342 13.7438 6.15033 13.6917C6.2516 13.6464 6.34456 13.5844 6.42533 13.5083C6.50256 13.4305 6.56366 13.3381 6.60513 13.2366C6.64661 13.1351 6.66763 13.0263 6.66699 12.9167C6.66392 12.696 6.5776 12.4847 6.42533 12.325C6.30814 12.2094 6.15933 12.131 5.99767 12.0999C5.83601 12.0688 5.66875 12.0862 5.51699 12.15ZM10.8337 12.0833H9.16699C8.94598 12.0833 8.73402 12.1711 8.57774 12.3274C8.42146 12.4837 8.33366 12.6957 8.33366 12.9167C8.33366 13.1377 8.42146 13.3496 8.57774 13.5059C8.73402 13.6622 8.94598 13.75 9.16699 13.75H10.8337C11.0547 13.75 11.2666 13.6622 11.4229 13.5059C11.5792 13.3496 11.667 13.1377 11.667 12.9167C11.667 12.6957 11.5792 12.4837 11.4229 12.3274C11.2666 12.1711 11.0547 12.0833 10.8337 12.0833Z" fill="#212121"/>
</svg>
