<svg width="24" height="24" viewBox="0 0 24 24" fill="none" xmlns="http://www.w3.org/2000/svg">
<path d="M20.1604 6.71092L12.5001 2.28827C12.1907 2.10964 11.8095 2.10964 11.5001 2.28827L3.83984 6.71092C3.53044 6.88955 3.33984 7.21968 3.33984 7.57695V16.4222C3.33984 16.7795 3.53044 17.1096 3.83984 17.2883L11.5001 21.7109C11.8095 21.8896 12.1907 21.8896 12.5001 21.7109L20.1604 17.2883C20.4698 17.1096 20.6604 16.7795 20.6604 16.4222V7.57695C20.6604 7.21968 20.4698 6.88955 20.1604 6.71092Z" stroke="#D89B1C" stroke-width="2" stroke-linecap="round" stroke-linejoin="round"/>
<path d="M12 15C13.6569 15 15 13.6569 15 12C15 10.3431 13.6569 9 12 9C10.3431 9 9 10.3431 9 12C9 13.6569 10.3431 15 12 15Z" stroke="#D89B1C" stroke-width="2" stroke-linecap="round" stroke-linejoin="round"/>
</svg>
