<svg width="109" height="33" viewBox="0 0 109 33" fill="none" xmlns="http://www.w3.org/2000/svg">
<g clip-path="url(#clip0_202_5748)">
<path d="M67.2205 25.5545C60.93 30.1911 51.8123 32.6649 43.9621 32.6649C32.9549 32.6649 23.0456 28.5938 15.5488 21.8226C14.9598 21.2902 15.4876 20.5645 16.1944 20.9792C24.2848 25.6865 34.2884 28.5184 44.6218 28.5184C51.5908 28.5184 59.2572 27.0765 66.3063 24.0844C67.3712 23.632 68.2618 24.7818 67.2205 25.5545Z" fill="#73788C"/>
<path d="M69.8361 22.563C69.0351 21.5358 64.521 22.0777 62.4949 22.318C61.8776 22.3934 61.7834 21.8562 62.3394 21.4698C65.9346 18.9395 71.834 19.6698 72.522 20.518C73.2099 21.3709 72.3429 27.2844 68.9644 30.1069C68.4461 30.5404 67.9513 30.3095 68.1822 29.7346C68.9409 27.8404 70.6419 23.5949 69.8361 22.563Z" fill="#73788C"/>
<path d="M62.6355 3.60703V1.14737C62.6355 0.775125 62.9182 0.525391 63.2575 0.525391H74.2694C74.6228 0.525391 74.9055 0.779838 74.9055 1.14737V3.25363C74.9008 3.60703 74.6039 4.0688 74.0762 4.79916L68.37 12.9462C70.4904 12.8944 72.7286 13.2101 74.651 14.2938C75.0846 14.5388 75.2024 14.8969 75.2353 15.2503V17.8749C75.2353 18.233 74.8395 18.6524 74.4249 18.4356C71.037 16.6592 66.537 16.466 62.791 18.4545C62.4093 18.6618 62.0088 18.2472 62.0088 17.8891V15.3964C62.0088 14.9959 62.0135 14.3127 62.414 13.7048L69.0249 4.2243H63.2716C62.9182 4.2243 62.6355 3.97457 62.6355 3.60703Z" fill="#73788C"/>
<path d="M22.4662 18.9533H19.116C18.7956 18.9297 18.5411 18.6894 18.5176 18.3831V1.18908C18.5176 0.845105 18.805 0.571808 19.1631 0.571808H22.2872C22.6123 0.585935 22.8715 0.835678 22.895 1.14667V3.39429H22.9563C23.7714 1.22206 25.3028 0.208984 27.3667 0.208984C29.4635 0.208984 30.7735 1.22206 31.7158 3.39429C32.5263 1.22206 34.3687 0.208984 36.343 0.208984C37.7472 0.208984 39.2833 0.788558 40.221 2.08907C41.2812 3.53565 41.0644 5.63719 41.0644 7.47958L41.0597 18.3313C41.0597 18.6753 40.7723 18.9533 40.4142 18.9533H37.0687C36.7341 18.9297 36.4655 18.6611 36.4655 18.3313V9.2183C36.4655 8.49266 36.5315 6.68325 36.3713 5.9953C36.1216 4.84087 35.3724 4.51574 34.4017 4.51574C33.5912 4.51574 32.7431 5.05762 32.3991 5.92462C32.0551 6.79163 32.0881 8.24292 32.0881 9.2183V18.3313C32.0881 18.6753 31.8007 18.9533 31.4426 18.9533H28.097C27.7578 18.9297 27.4939 18.6611 27.4939 18.3313L27.4892 9.2183C27.4892 7.30052 27.8049 4.47804 25.4253 4.47804C23.0175 4.47804 23.1118 7.22984 23.1118 9.2183V18.3313C23.1118 18.6753 22.8243 18.9533 22.4662 18.9533Z" fill="#73788C"/>
<path d="M84.3864 0.208984C89.3575 0.208984 92.048 4.47804 92.048 9.90625C92.048 15.1507 89.0748 19.3114 84.3864 19.3114C79.5047 19.3114 76.8472 15.0423 76.8472 9.72248C76.8472 4.36967 79.5377 0.208984 84.3864 0.208984ZM84.4146 3.71942C81.9455 3.71942 81.79 7.08377 81.79 9.18061C81.79 11.2822 81.7571 15.768 84.3864 15.768C86.9827 15.768 87.1052 12.1492 87.1052 9.94394C87.1052 8.49266 87.0439 6.75865 86.6057 5.38274C86.2287 4.1859 85.4795 3.71942 84.4146 3.71942Z" fill="#73788C"/>
<path d="M98.4937 18.9533H95.1576C94.8231 18.9297 94.5545 18.6611 94.5545 18.3313L94.5498 1.13253C94.5781 0.81683 94.8561 0.571808 95.1953 0.571808H98.3005C98.5927 0.585935 98.833 0.783848 98.899 1.05243V3.68172H98.9602C99.8979 1.33044 101.213 0.208984 103.526 0.208984C105.029 0.208984 106.495 0.750863 107.437 2.23514C108.314 3.61104 108.314 5.92462 108.314 7.58795V18.4114C108.276 18.713 107.998 18.9533 107.668 18.9533H104.308C104.002 18.9297 103.748 18.7035 103.715 18.4114V9.07223C103.715 7.19215 103.931 4.44035 101.618 4.44035C100.803 4.44035 100.053 4.98694 99.6812 5.81625C99.21 6.86702 99.1487 7.91308 99.1487 9.07223V18.3313C99.144 18.6753 98.8518 18.9533 98.4937 18.9533Z" fill="#73788C"/>
<path d="M53.8575 10.7411V10.0155C51.4355 10.0155 48.8769 10.5338 48.8769 13.3893C48.8769 14.8358 49.6261 15.8159 50.9125 15.8159C51.8549 15.8159 52.6983 15.2364 53.2308 14.294C53.8904 13.1348 53.8575 12.0463 53.8575 10.7411ZM57.2359 18.907C57.0145 19.1049 56.6941 19.119 56.4443 18.9871C55.3323 18.0636 55.1344 17.6348 54.5218 16.7536C52.6842 18.629 51.3837 19.1897 48.9994 19.1897C46.1816 19.1897 43.9858 17.451 43.9858 13.9688C43.9858 11.25 45.4607 9.39821 47.5575 8.49351C49.3763 7.69247 51.9161 7.55112 53.8575 7.32965V6.89615C53.8575 6.09982 53.9187 5.15742 53.4522 4.46948C53.0423 3.85221 52.2601 3.59776 51.5721 3.59776C50.2952 3.59776 49.1549 4.25272 48.8769 5.60978C48.8203 5.91135 48.5989 6.2082 48.2973 6.22234L45.046 5.87365C44.7727 5.81239 44.4712 5.59093 44.5466 5.17156C45.2958 1.23235 48.8533 0.0449219 52.0386 0.0449219C53.669 0.0449219 55.7988 0.478425 57.0852 1.71296C58.7155 3.23494 58.56 5.2658 58.56 7.47572V12.6966C58.56 14.2657 59.2103 14.9536 59.8228 15.8018C60.0396 16.1034 60.0867 16.4662 59.8134 16.6924C59.1302 17.2625 57.9145 18.3227 57.2454 18.9164L57.2359 18.907Z" fill="#73788C"/>
<path d="M9.93704 10.7411V10.0155C7.51508 10.0155 4.95647 10.5338 4.95647 13.3893C4.95647 14.8358 5.70567 15.8159 6.99205 15.8159C7.93444 15.8159 8.77789 15.2364 9.31035 14.294C9.97002 13.1348 9.93704 12.0463 9.93704 10.7411ZM13.3155 18.907C13.0941 19.1049 12.7737 19.119 12.5239 18.9871C11.4119 18.0636 11.214 17.6348 10.6014 16.7536C8.76375 18.629 7.46325 19.1897 5.07898 19.1897C2.26121 19.1897 0.0654297 17.451 0.0654297 13.9688C0.0654297 11.25 1.54028 9.39821 3.63711 8.49351C5.45594 7.69247 7.9957 7.55112 9.93704 7.32965V6.89615C9.93704 6.09982 9.9983 5.15742 9.53181 4.46948C9.12186 3.85221 8.33968 3.59776 7.65172 3.59776C6.37478 3.59776 5.23448 4.25272 4.95647 5.60978C4.89992 5.91135 4.67846 6.2082 4.3769 6.22234L1.12563 5.87365C0.852331 5.81239 0.550763 5.59093 0.626155 5.17156C1.37536 1.23235 4.93291 0.0449219 8.11821 0.0449219C9.74856 0.0449219 11.8784 0.478425 13.1647 1.71296C14.7951 3.23494 14.6396 5.2658 14.6396 7.47572V12.6966C14.6396 14.2657 15.2899 14.9536 15.9024 15.8018C16.1192 16.1034 16.1663 16.4662 15.893 16.6924C15.2098 17.2625 13.9941 18.3227 13.325 18.9164L13.3155 18.907Z" fill="#73788C"/>
</g>
<defs>
<clipPath id="clip0_202_5748">
<rect width="108.378" height="32.7111" fill="white"/>
</clipPath>
</defs>
</svg>
