<svg width="116" height="36" viewBox="0 0 116 36" fill="none" xmlns="http://www.w3.org/2000/svg">
<g clip-path="url(#clip0_202_5757)">
<path d="M0.0576172 24.7847V0.569336H4.31134V24.7847H0.0576172Z" fill="#73788C"/>
<path d="M15.2001 7.21777C9.74629 7.21777 5.97217 11.4111 5.97217 16.2107C5.97217 21.5674 10.078 25.2576 15.2425 25.2576C20.1439 25.2576 24.3972 21.6353 24.3972 16.1991C24.3972 11.6278 20.8728 7.21777 15.2001 7.21777ZM15.15 11.3212C18.0042 11.3212 20.105 13.5429 20.105 16.2261C20.105 19.071 17.7888 21.1464 15.2271 21.1464C12.2002 21.1464 10.2952 18.7473 10.2952 16.2338C10.2952 13.4787 12.4459 11.3212 15.15 11.3212Z" fill="#73788C"/>
<path d="M35.0844 7.21777C29.6306 7.21777 25.8564 11.4111 25.8564 16.2107C25.8564 21.5674 29.9623 25.2576 35.1268 25.2576C40.0282 25.2576 44.2815 21.6353 44.2815 16.1991C44.2815 12.9979 42.8952 11.5775 42.8952 11.5775L44.0742 11.1732V7.72093H38.0327C38.0327 7.72093 36.723 7.21777 35.0844 7.21777ZM35.0343 11.3212C37.8884 11.3212 39.9893 13.5429 39.9893 16.2261C39.9893 19.071 37.6731 21.1464 35.1114 21.1464C32.0844 21.1464 30.1795 18.7473 30.1795 16.2338C30.1795 13.4787 32.3302 11.3212 35.0343 11.3212Z" fill="#73788C"/>
<path d="M39.9595 25.9688C39.9595 28.8137 37.6433 30.9044 35.0816 30.9044C32.0547 30.9044 30.142 28.4822 30.142 25.9688H25.8267C25.8267 31.3254 29.9325 35.0156 35.097 35.0156C39.9984 35.0156 44.2517 31.4049 44.2517 25.9688H39.9595Z" fill="#73788C"/>
<path d="M45.9854 24.7849V7.7207H50.2391V24.7849H45.9854Z" fill="#73788C"/>
<path d="M54.3694 24.7847V11.5427H52.0884V7.72055H54.3694V2.48047H58.6231V7.72055H60.9657V11.5427H58.6231V24.7847H54.3694Z" fill="#73788C"/>
<path d="M50.9202 2.87442C50.9202 4.43009 49.6591 5.69122 48.1034 5.69122C46.5477 5.69122 45.2866 4.43009 45.2866 2.87442C45.2866 1.31874 46.5477 0.0576172 48.1034 0.0576172C49.6591 0.0576172 50.9202 1.31874 50.9202 2.87442Z" fill="#73788C"/>
<path d="M70.5293 7.20605C65.0496 7.20605 61.5171 11.4015 61.5171 16.3647C61.5171 21.4935 65.0614 25.269 70.6179 25.269C75.8012 25.269 78.3509 22.0324 78.3509 22.0324L75.5074 19.1851C75.5074 19.1851 73.3604 21.5007 70.6718 21.5007C68.4306 21.5007 66.6387 20.2498 66.0135 17.9559H79.2679V16.7846C79.2679 12.1109 76.5627 7.20605 70.5293 7.20605ZM70.3944 10.9512C72.354 10.9512 74.3579 11.9995 74.8061 14.5036H65.898C66.2508 12.7434 67.7907 10.9512 70.3944 10.9512Z" fill="#73788C"/>
<path d="M89.9074 25.2714C84.4123 25.2714 80.668 21.0861 80.668 16.1514C80.668 11.0587 84.8997 7.20312 89.8898 7.20312C94.7138 7.20312 97.183 10.6086 97.183 10.6086L94.2157 13.5625C94.2157 13.5625 92.4968 11.3416 89.8696 11.3416C86.9579 11.3416 84.9669 13.569 84.9669 16.2167C84.9669 19.0124 87.0848 21.1572 89.8369 21.1572C92.5063 21.1572 94.2115 18.94 94.2115 18.94L97.2086 21.8923C97.2086 21.8923 94.7633 25.2714 89.9074 25.2714Z" fill="#73788C"/>
<path d="M98.7563 24.7972V0.507812H103.01V9.43183C103.01 9.43183 104.639 7.20271 108.182 7.20271C112.636 7.20271 115.216 10.5138 115.216 14.7485V24.7972H110.963V15.3914C110.963 12.5464 109.191 11.3661 107.229 11.3661C104.994 11.3661 103.01 12.6384 103.01 15.6116V24.7972H98.7563Z" fill="#73788C"/>
</g>
<defs>
<clipPath id="clip0_202_5757">
<rect width="115.274" height="35.0733" fill="white"/>
</clipPath>
</defs>
</svg>
