<svg width="78" height="21" viewBox="0 0 78 21" fill="none" xmlns="http://www.w3.org/2000/svg">
<g clip-path="url(#clip0_202_5780)">
<path d="M10.6588 19.5991C9.49274 19.8039 8.30614 19.8653 7.07866 20.0288L3.33467 9.06314V20.4994C2.16859 20.6221 1.10477 20.7858 0 20.9494V0H3.10977L7.36503 11.8865V0H10.6588V19.5991ZM17.1033 7.67192C18.3718 7.67192 20.3153 7.61053 21.4814 7.61053V10.8838C20.0288 10.8838 18.3308 10.8838 17.1033 10.9452V15.8144C19.0264 15.6917 20.9495 15.5279 22.893 15.4665V18.6169L13.8298 19.3331V0H22.893V3.27336H17.1033V7.67192ZM35.0657 3.27343H31.6697V18.3308C30.5649 18.3308 29.4601 18.3308 28.3965 18.3716V3.27343H25.0004V0H35.0659L35.0657 3.27343ZM40.3849 7.44694H44.8654V10.7202H40.3849V18.1467H37.1727V0H46.3179V3.27336H40.3849V7.44694ZM51.6371 15.2824C53.4988 15.3233 55.3809 15.4667 57.2018 15.5688V18.8013C54.2763 18.617 51.3507 18.4332 48.3638 18.3716V0H51.6371V15.2824ZM59.9636 19.0264C61.007 19.0878 62.1118 19.1492 63.1756 19.2718V0H59.9636V19.0264ZM77.5171 0L73.3639 9.96329L77.5171 20.9494C76.2895 20.7858 75.062 20.5607 73.8344 20.3561L71.4818 14.3005L69.0884 19.8653C67.9016 19.6605 66.7559 19.5991 65.5695 19.4354L69.7839 9.84043L65.9785 0H69.4972L71.6454 5.50333L73.9368 0L77.5171 0Z" fill="#73788C"/>
</g>
<defs>
<clipPath id="clip0_202_5780">
<rect width="77.5171" height="20.9494" fill="white"/>
</clipPath>
</defs>
</svg>
