<svg width="144" height="22" viewBox="0 0 144 22" fill="none" xmlns="http://www.w3.org/2000/svg">
<g clip-path="url(#clip0_202_5771)">
<mask id="mask0_202_5771" style="mask-type:luminance" maskUnits="userSpaceOnUse" x="-11" y="-11" width="166" height="44">
<path d="M-10.9741 -10.9765H154.285V32.9229H-10.9741V-10.9765Z" fill="white"/>
</mask>
<g mask="url(#mask0_202_5771)">
<path d="M136.054 9.64007V12.6278H138.153V15.5921C138.16 15.857 138.146 16.1427 138.1 16.3713C138.017 16.9242 137.491 17.8657 136.001 17.8657C134.519 17.8657 134.004 16.9242 133.914 16.3713C133.876 16.1427 133.86 15.857 133.86 15.5921V6.22935C133.86 5.89817 133.883 5.53568 133.953 5.26132C134.055 4.76231 134.497 3.77824 135.99 3.77824C137.557 3.77824 137.948 4.81571 138.038 5.26132C138.097 5.55647 138.1 6.05153 138.1 6.05153V7.18844H143.259V6.51634C143.259 6.51634 143.283 5.81504 143.22 5.16057C142.832 1.31766 139.666 0.101833 136.035 0.101833C132.398 0.101833 129.296 1.32897 128.844 5.16057C128.803 5.51096 128.741 6.14123 128.741 6.51634V15.1292C128.741 15.5043 128.753 15.7947 128.822 16.4802C129.159 20.2174 132.398 21.5421 136.021 21.5421C139.666 21.5421 142.883 20.2174 143.225 16.4802C143.286 15.7947 143.292 15.5043 143.3 15.1292V9.64007H136.054ZM100.48 0.652925H95.299V15.8081C95.3071 16.0722 95.299 16.3689 95.2534 16.5865C95.1453 17.0952 94.7142 18.0743 93.2848 18.0743C91.8738 18.0743 91.4313 17.0952 91.3314 16.5865C91.2795 16.3689 91.273 16.0722 91.2795 15.8081V0.652925H86.1001V15.3378C86.0935 15.7163 86.1232 16.4897 86.1456 16.6922C86.5031 20.5188 89.5189 21.7612 93.2848 21.7612C97.058 21.7612 100.072 20.5188 100.436 16.6922C100.465 16.4897 100.502 15.7163 100.48 15.3378V0.652925ZM52.8756 0.652925L50.2911 16.6664L47.7082 0.652925H39.3508L38.9076 21.1388H44.0276L44.1663 2.17441L47.689 21.1388H52.8838L56.4097 2.17441L56.5489 21.1388H61.6818L61.2236 0.652925H52.8756ZM21.9326 0.652925L18.1379 21.1388H23.6717L26.5313 2.17441L29.3223 21.1388H34.8177L31.0387 0.652925H21.9326ZM118.587 17.1465L113.763 0.652925H106.16V20.9252H111.189L110.897 3.90398L116.078 20.9252H123.369V0.652925H118.308L118.587 17.1465ZM72.0694 5.98445C71.9784 5.57988 72.0047 5.15005 72.0518 4.92541C72.1983 4.26962 72.6389 3.55438 73.9084 3.55438C75.0916 3.55438 75.7853 4.29198 75.7853 5.3989V6.65155H80.8359V5.22371C80.8359 0.809704 76.8785 0.116301 74.0134 0.116301C70.4048 0.116301 67.4579 1.30582 66.9197 4.62711C66.7774 5.53095 66.7421 6.33325 66.9686 7.35705C67.8461 11.4983 75.0556 12.6996 76.102 15.3186C76.2867 15.8147 76.2338 16.4473 76.1396 16.8201C75.9828 17.5016 75.5243 18.1871 74.1652 18.1871C72.8904 18.1871 72.1231 17.4543 72.1231 16.3497L72.1215 14.3837H66.6853V15.9465C66.6853 20.4749 70.2323 21.8412 74.0526 21.8412C77.7113 21.8412 80.7333 20.5909 81.2181 17.2017C81.4493 15.4506 81.2749 14.31 81.1821 13.8805C80.335 9.63297 72.651 8.35533 72.0694 5.98445ZM5.44564 5.93421C5.34647 5.52122 5.36962 5.08534 5.42486 4.85806C5.5648 4.20543 6.00804 3.47757 7.29989 3.47757C8.49809 3.47757 9.20359 4.22227 9.20359 5.33813V6.60604H14.3134V5.16689C14.3134 0.710535 10.2955 0.000295639 7.39906 0.000295639C3.76027 0.000295639 0.787011 1.20823 0.243021 4.55345C0.0941338 5.47176 0.0686094 6.27959 0.283785 7.3147C1.17079 11.503 8.45153 12.7141 9.51083 15.3643C9.70917 15.857 9.6492 16.4897 9.55082 16.8769C9.38273 17.5655 8.92055 18.2608 7.55006 18.2608C6.27031 18.2608 5.50483 17.5153 5.50483 16.3955L5.49773 14.4242H0.000488281V15.9907C0.000488281 20.5709 3.59771 21.9482 7.44773 21.9482C11.1491 21.9482 14.1887 20.6869 14.6845 17.2586C14.931 15.4914 14.7461 14.3413 14.663 13.9052C13.7983 9.60561 6.02883 8.33218 5.44564 5.93421Z" fill="#73788C"/>
</g>
</g>
<defs>
<clipPath id="clip0_202_5771">
<rect width="143.3" height="21.9479" fill="white"/>
</clipPath>
</defs>
</svg>
