<svg width="107" height="33" viewBox="0 0 107 33" fill="none" xmlns="http://www.w3.org/2000/svg">
<g clip-path="url(#clip0_202_5769)">
<path d="M16.0634 0.0527344C7.21872 0.0527344 0.0483398 7.22292 0.0483398 16.0676C0.0483398 24.9127 7.21872 32.0823 16.0634 32.0823C24.9091 32.0823 32.0787 24.9127 32.0787 16.0676C32.0787 7.2235 24.9091 0.0534993 16.0632 0.0534993L16.0634 0.0527344ZM23.4078 23.1508C23.121 23.6212 22.5052 23.7704 22.0347 23.4816C18.2745 21.1848 13.5409 20.6647 7.96628 21.9383C7.42908 22.0607 6.89361 21.7241 6.77122 21.1867C6.64825 20.6494 6.98349 20.1139 7.52203 19.9915C13.6226 18.5977 18.8555 19.1978 23.077 21.7777C23.5474 22.0665 23.6966 22.6803 23.4078 23.1508ZM25.368 18.7901C25.0066 19.3776 24.2378 19.5631 23.6507 19.2017C19.3459 16.5557 12.7838 15.7894 7.69204 17.335C7.03169 17.5344 6.33423 17.1623 6.13381 16.5031C5.93492 15.8427 6.30727 15.1466 6.96647 14.9458C12.7827 13.181 20.0133 14.0359 24.9569 17.0737C25.544 17.4352 25.7295 18.2038 25.368 18.7901ZM25.5363 14.2493C20.3747 11.1835 11.8588 10.9016 6.93071 12.3973C6.13936 12.6373 5.30249 12.1906 5.06267 11.3992C4.82286 10.6075 5.26921 9.7712 6.06114 9.53062C11.7182 7.81328 21.1225 8.14509 27.0651 11.6729C27.7784 12.0954 28.0118 13.0146 27.5891 13.7255C27.1684 14.4373 26.2466 14.6719 25.5371 14.2493H25.5363ZM43.6201 14.8368C40.8547 14.1774 40.3632 13.7146 40.3632 12.7421C40.3632 11.8234 41.2276 11.2051 42.5147 11.2051C43.7616 11.2051 44.997 11.6746 46.2936 12.6412C46.3318 12.6704 46.3816 12.6821 46.4294 12.6744C46.4791 12.6672 46.5212 12.6406 46.5499 12.6006L47.9 10.6974C47.9555 10.619 47.9402 10.5109 47.8656 10.4511C46.3223 9.21316 44.5858 8.61133 42.5548 8.61133C39.5696 8.61133 37.4831 10.4031 37.4831 12.9666C37.4831 15.7157 39.2827 16.6891 42.3923 17.4405C45.0371 18.05 45.4846 18.5606 45.4846 19.4732C45.4846 20.4849 44.582 21.1141 43.1286 21.1141C41.5145 21.1141 40.1968 20.569 38.7243 19.2954C38.688 19.2629 38.6382 19.2495 38.5923 19.2514C38.5426 19.2552 38.4986 19.2782 38.468 19.3145L36.9534 21.116C36.8903 21.1925 36.8979 21.3034 36.9706 21.3684C38.6841 22.8983 40.7916 23.7054 43.0674 23.7054C46.284 23.7054 48.3628 21.9479 48.3628 19.2265C48.3686 16.9303 46.9935 15.6586 43.6258 14.8393L43.6201 14.8368ZM55.6414 12.1097C54.2473 12.1097 53.1037 12.6589 52.159 13.7844V12.5176C52.159 12.4176 52.0786 12.3361 51.9792 12.3361H49.5026C49.4032 12.3361 49.3229 12.4176 49.3229 12.5176V26.5931C49.3229 26.6926 49.4032 26.7748 49.5026 26.7748H51.9792C52.0786 26.7748 52.159 26.6926 52.159 26.5931V22.1506C53.1037 23.2082 54.2473 23.7264 55.6414 23.7264C58.2328 23.7264 60.8566 21.7318 60.8566 17.9186C60.8604 14.1047 58.2366 12.1095 55.6434 12.1095L55.6414 12.1097ZM57.9765 17.9186C57.9765 19.8595 56.7812 21.2154 55.0677 21.2154C53.3752 21.2154 52.0978 19.7983 52.0978 17.9186C52.0978 16.0387 53.3752 14.622 55.0677 14.622C56.7526 14.6218 57.9765 16.0081 57.9765 17.9186ZM67.5787 12.1097C64.2415 12.1097 61.6273 14.6792 61.6273 17.9601C61.6273 21.2059 64.2243 23.7475 67.5385 23.7475C70.8872 23.7475 73.5091 21.1867 73.5091 17.9186C73.5091 14.6616 70.9044 12.1101 67.5787 12.1101V12.1097ZM67.5787 21.2346C65.804 21.2346 64.4653 19.8079 64.4653 17.9177C64.4653 16.0188 65.7581 14.641 67.5385 14.641C69.3247 14.641 70.6711 16.067 70.6711 17.9592C70.6711 19.8576 69.3706 21.2346 67.5787 21.2346ZM80.6347 12.3361H77.9095V9.55051C77.9095 9.45069 77.8292 9.36922 77.7298 9.36922H75.2532C75.1537 9.36922 75.0715 9.45069 75.0715 9.55051V12.3361H73.882C73.7825 12.3361 73.7022 12.4176 73.7022 12.5176V14.6455C73.7022 14.7454 73.7825 14.827 73.882 14.827H75.0715V20.3338C75.0715 22.5579 76.1788 23.6863 78.3647 23.6863C79.252 23.6863 79.9883 23.5027 80.6825 23.1087C80.7399 23.0781 80.7743 23.0169 80.7743 22.9519V20.9247C80.7743 20.8635 80.7418 20.8043 80.6882 20.7718C80.6347 20.7373 80.5678 20.7354 80.5123 20.7641C80.0361 21.0032 79.5752 21.1141 79.0589 21.1141C78.2652 21.1141 77.9095 20.7526 77.9095 19.9456V14.828H80.6347C80.7341 14.828 80.8145 14.7465 80.8145 14.6465V12.5188C80.8183 12.4187 80.738 12.3373 80.6366 12.3373L80.6347 12.3361ZM90.1279 12.347V12.0049C90.1279 10.9984 90.5142 10.5496 91.3786 10.5496C91.895 10.5496 92.3099 10.6521 92.7747 10.807C92.832 10.8249 92.8913 10.816 92.9372 10.7817C92.985 10.7475 93.0118 10.6926 93.0118 10.6345V8.54803C93.0118 8.46828 92.9621 8.39771 92.8837 8.37419C92.3941 8.22828 91.7668 8.07853 90.8259 8.07853C88.5406 8.07853 87.33 9.36635 87.33 11.8014V12.3254H86.1405C86.0411 12.3254 85.9588 12.4069 85.9588 12.5067V14.6455C85.9588 14.7454 86.0411 14.827 86.1405 14.827H87.33V23.3191C87.33 23.4204 87.4123 23.5008 87.5117 23.5008H89.9864C90.0877 23.5008 90.168 23.4204 90.168 23.3191V14.8276H92.4801L96.0219 23.3191C95.6203 24.2103 95.2244 24.3881 94.6852 24.3881C94.2491 24.3881 93.7882 24.2581 93.3197 23.9999C93.2757 23.9769 93.2222 23.9731 93.1763 23.9865C93.1285 24.0037 93.0883 24.0381 93.0692 24.084L92.2296 25.9257C92.1895 26.0137 92.2239 26.115 92.308 26.1609C93.1839 26.6352 93.9737 26.8379 94.951 26.8379C96.7792 26.8379 97.7909 25.985 98.6802 23.6939L102.975 12.5949C102.998 12.539 102.991 12.4759 102.956 12.4264C102.924 12.3772 102.868 12.3476 102.809 12.3476H100.231C100.153 12.3476 100.084 12.3967 100.059 12.4692L97.418 20.0106L94.5264 12.4643C94.4996 12.3941 94.4327 12.3476 94.3581 12.3476H90.1279V12.347ZM84.624 12.3361H82.1474C82.048 12.3361 81.9657 12.4176 81.9657 12.5176V23.3191C81.9657 23.4204 82.048 23.5008 82.1474 23.5008H84.624C84.7234 23.5008 84.8057 23.4204 84.8057 23.3191V12.5184C84.8057 12.4184 84.7253 12.3369 84.624 12.3369V12.3361ZM83.4 7.4176C82.419 7.4176 81.6234 8.21164 81.6234 9.19251C81.6234 10.174 82.419 10.9689 83.4 10.9689C84.3811 10.9689 85.1748 10.174 85.1748 9.19251C85.1748 8.21183 84.3792 7.4176 83.4 7.4176ZM105.091 15.8092C104.111 15.8092 103.348 15.0223 103.348 14.0667C103.348 13.111 104.121 12.3151 105.1 12.3151C106.079 12.3151 106.842 13.1019 106.842 14.0567C106.842 15.0123 106.07 15.8092 105.091 15.8092ZM105.1 12.4884C104.207 12.4884 103.532 13.1979 103.532 14.0667C103.532 14.9351 104.203 15.635 105.091 15.635C105.984 15.635 106.659 14.9261 106.659 14.0567C106.659 13.1883 105.987 12.4884 105.1 12.4884ZM105.486 14.2359L105.98 14.9259H105.563L105.119 14.2929H104.739V14.9259H104.391V13.0969H105.205C105.632 13.0969 105.911 13.3143 105.911 13.6804C105.913 13.9802 105.739 14.1634 105.488 14.2359H105.486ZM105.192 13.4107H104.739V13.9892H105.192C105.418 13.9892 105.553 13.8785 105.553 13.6997C105.553 13.5115 105.418 13.4107 105.192 13.4107Z" fill="#73788C"/>
</g>
<defs>
<clipPath id="clip0_202_5769">
<rect width="106.904" height="32.1284" fill="white"/>
</clipPath>
</defs>
</svg>
